<?xml version="1.0" standalone="no"?>
<!DOCTYPE svg PUBLIC "-//W3C//DTD SVG 1.1//EN" "http://www.w3.org/Graphics/SVG/1.1/DTD/svg11.dtd" >
<svg xmlns="http://www.w3.org/2000/svg">
<metadata>Generated by IcoMoon</metadata>
<defs>
<font id="icomoon" horiz-adv-x="1024">
<font-face units-per-em="1024" ascent="960" descent="-64" />
<missing-glyph horiz-adv-x="1024" />
<glyph unicode="&#x20;" horiz-adv-x="512" d="" />
<glyph unicode="&#xe900;" glyph-name="check_mark" d="M859.914 564.324l-380.544-380.544c-45.106-45.027-118.095-45.027-163.118 0-2.838 2.838-3.905 6.509-6.354 9.569l-147.344 147.344c-43.5 43.5-43.5 114.035 0 157.533s114.035 43.5 157.533 0l73.754-73.754 302.962 302.962c45.027 45.027 118.095 45.027 163.118 0s45.027-118.016 0-163.118z" />
<glyph unicode="&#xe901;" glyph-name="blockquote" horiz-adv-x="1280" d="M983.040 837.958c-14.961 7.496-122.536-98.728-190.78-228.825-46.225-87.889-72.263-187.501-72.263-293.184 0-1.028 0.002-2.055 0.007-3.082-0.386-6.503-0.609-14.289-0.609-22.134 0-97.26 33.757-186.636 90.189-257.051 50.343-61.606 127.306-101.139 213.499-101.139 0.096 0 0.191 0 0.288 0 0.609-0.006 1.349-0.009 2.084-0.009 64.391 0 122.802 25.587 165.637 67.139 44.044 39.559 71.657 96.769 71.657 160.424 0 1.313-0.012 2.629-0.032 3.94-0.616 59.448-25.396 115.74-65.352 157.325-45.812 46.1-109.361 74.682-179.586 74.682-7.272 0-14.472-0.302-21.588-0.907 0.801 4.134 0.729 8.934 0.729 13.743 0 61.965 12.303 121.060 34.598 174.961-3.788 10.597 34.208 74.215 86.911 121.877 18.029 22.304 84.48 60.284 159.039 76.599l2.536 175.378c-89.023-3.052-204.766-48.276-298.322-120.755zM263.036 837.958c-15.165 7.27-122.302-98.892-190.145-228.81-46.22-87.903-72.254-187.508-72.254-293.194 0-1.028 0.002-2.055 0.007-3.082-0.397-6.567-0.618-14.445-0.618-22.364 0-97.291 34.024-186.624 90.823-256.771 50.169-61.395 127.024-100.97 213.127-101.19 0.258-0.001 0.521-0.001 0.788-0.001 64.617 0 123.256 25.57 166.364 67.143 44.403 39.684 72.267 97.22 72.267 161.259 0 1.018-0.007 2.030-0.025 3.045-0.494 59.748-25.034 115.867-64.722 157.374-45.942 46.165-109.653 74.8-180.043 74.8-7.785 0-15.484-0.352-23.098-1.035 0.855 4.142 0.777 8.938 0.777 13.744 0 61.965 12.303 121.060 34.598 174.961-3.788 10.597 34.208 74.215 86.911 121.877 18.656 22.828 84.828 60.577 159.074 76.609l2.501 175.365c-89.706-3.102-204.814-48.283-297.625-120.724z" />
<glyph unicode="&#xe902;" glyph-name="nav-arrow-up-small" d="M149.768 810.056c-92.544-92.719-149.767-220.705-149.767-362.056s57.223-269.337 149.759-362.048c92.653-92.648 220.649-149.952 362.030-149.952 282.77 0 512 229.23 512 512s-229.23 512-512 512c-141.38 0-269.376-57.304-362.029-149.952zM149.76 810.048c92.653 92.648 220.649 149.952 362.029 149.952 282.77 0 512-229.23 512-512s-229.23-512-512-512c-141.38 0-269.376 57.304-362.030 149.952-92.536 92.711-149.759 220.697-149.759 362.048s57.223 269.337 149.767 362.056zM463.385 618.65c11.912 12.488 28.715 20.269 47.335 20.269s35.424-7.781 47.36-20.294l189.415-196.262c12.211-12.758 19.713-30.060 19.713-49.114s-7.502-36.356-19.688-49.088l-47.385-49.114c-11.912-12.488-28.715-20.269-47.335-20.269s-35.424 7.781-47.36 20.294l-94.72 98.24-94.105-98.266c-11.912-12.488-28.715-20.269-47.335-20.269s-35.424 7.781-47.36 20.294l-47.335 49.062c-12.211 12.758-19.713 30.060-19.713 49.114s7.502 36.356 19.688 49.088l142.080 147.2 46.72 49.088z" />
<glyph unicode="&#xe903;" glyph-name="check-box" d="M830.464 736.358c24.349-17.104 40.067-45.065 40.067-76.696 0-21.662-7.371-41.603-19.743-57.45l-324.964-422.705c-18.768-23.674-47.525-38.724-79.798-38.724-22.114 0-42.578 7.067-59.257 19.065-18.13 12.696-213.714 199.166-213.714 199.166-11.985 14.853-19.239 33.96-19.239 54.761 0 27.444 12.628 51.94 32.389 67.992 17.192 20.934 42.876 34.108 71.637 34.108 20.049 0 38.602-6.402 53.728-17.273l122.093-117.009 258.048 335.104c18.759 23.608 47.47 38.612 79.684 38.612 22.165 0 42.671-7.103 59.366-19.156zM153.6 960c-84.454-0.909-152.685-69.136-153.599-153.513l-0.001-716.887c0.909-84.454 69.136-152.685 153.513-153.599l716.887-0.001c84.454 0.909 152.685 69.136 153.599 153.513l0.001 716.887c-0.909 84.454-69.136 152.685-153.513 153.599l-716.887 0.001z" />
<glyph unicode="&#xe904;" glyph-name="cross" d="M975.36 674.56l-226.987-226.56 226.987-226.56c29.619-30.192 47.9-71.598 47.9-117.274 0-92.513-74.996-167.509-167.509-167.509-45.846 0-87.389 18.418-117.636 48.257l-226.115 226.542-226.133-226.56c-30.228-29.821-71.772-48.239-117.618-48.239-92.513 0-167.509 74.996-167.509 167.509 0 45.676 18.281 87.082 47.926 117.3l226.961 226.534-226.987 226.56c-30.265 30.254-48.985 72.056-48.985 118.229 0 92.326 74.845 167.171 167.171 167.171 46.152 0 87.937-18.703 118.187-48.943l226.986-226.56 226.987 226.56c30.25 30.239 72.034 48.942 118.187 48.942 92.326 0 167.171-74.845 167.171-167.171 0-46.174-18.72-87.975-48.984-118.229z" />
<glyph unicode="&#xe905;" glyph-name="rating" horiz-adv-x="1056" d="M972.534 74.934h-69.467v764.088c0 38.365-31.103 69.467-69.467 69.467h-69.467c-38.365 0-69.467-31.103-69.467-69.467v-764.088h-69.467v694.626c0 38.365-31.103 69.467-69.467 69.467h-69.467c-38.365 0-69.467-31.103-69.467-69.467v-694.626h-69.467v486.239c0 38.365-31.103 69.467-69.467 69.467h-69.467c-38.365 0-69.467-31.103-69.467-69.467v-486.239h-69.467c-38.365 0-69.467-31.103-69.467-69.467s31.103-69.467 69.467-69.467h903.013c38.365 0 69.467 31.103 69.467 69.467s-31.103 69.467-69.467 69.467z" />
<glyph unicode="&#xe906;" glyph-name="close" d="M979.587 742.055l-288.978-288.85 288.978-288.786c23.507-19.283 38.402-48.389 38.402-80.917 0-24.5-8.403-47.031-22.547-64.852l-54.963-55.252c-17.555-13.81-40.050-22.148-64.434-22.148-32.571 0-61.682 14.867-80.885 38.194l-289.143 288.961-288.978-288.786c-19.373-23.494-48.457-38.355-81.029-38.355-24.394 0-46.841 8.366-64.647 22.318l-54.898 55.316c-13.953 17.601-22.382 40.133-22.382 64.634 0 32.532 14.867 61.631 38.22 80.788l289.156 288.951-288.978 288.85c-23.507 19.283-38.397 48.34-38.397 80.909 0 24.467 8.403 47.026 22.547 64.821l54.963 55.252c17.555 13.81 40.050 22.148 64.434 22.148 32.571 0 61.682-14.867 80.885-38.194l289.143-288.961 288.978 288.786c19.373 23.494 48.457 38.355 81.029 38.355 24.394 0 46.841-8.366 64.647-22.318l54.898-55.316c13.949-17.592 22.382-40.114 22.382-64.627 0-32.532-14.867-61.618-38.214-80.762z" />
<glyph unicode="&#xe907;" glyph-name="menu" d="M924.444-64h-824.889c-2.756-0.296-5.953-0.465-9.19-0.465-46.424 0-84.731 34.755-90.321 79.665l-0.045 68.711c5.635 45.355 43.942 80.11 90.366 80.11 3.237 0 6.434-0.169 9.583-0.498l824.496 0.033c2.756 0.296 5.953 0.465 9.19 0.465 46.424 0 84.731-34.755 90.321-79.665l0.045-68.711c-5.635-45.355-43.942-80.11-90.366-80.11-3.237 0-6.434 0.169-9.583 0.498zM924.444 334.222h-824.889c-2.756-0.296-5.953-0.465-9.19-0.465-46.424 0-84.731 34.755-90.321 79.665l-0.045 68.711c5.635 45.355 43.942 80.11 90.366 80.11 3.237 0 6.434-0.169 9.583-0.498l824.496 0.033c2.756 0.296 5.953 0.465 9.19 0.465 46.424 0 84.731-34.755 90.321-79.665l0.045-68.711c-5.635-45.355-43.942-80.11-90.366-80.11-3.237 0-6.434 0.169-9.583 0.498zM924.444 732.444h-824.889c-2.756-0.296-5.953-0.465-9.19-0.465-46.424 0-84.731 34.755-90.321 79.665l-0.045 68.711c5.635 45.355 43.942 80.11 90.366 80.11 3.237 0 6.434-0.169 9.583-0.498l824.496 0.033c2.756 0.296 5.953 0.465 9.19 0.465 46.424 0 84.731-34.755 90.321-79.665l0.045-68.711c-5.635-45.355-43.942-80.11-90.366-80.11-3.237 0-6.434 0.169-9.583 0.498z" />
<glyph unicode="&#xe908;" glyph-name="tag" horiz-adv-x="1025" d="M982.4 841.6c-2.696 22.864-20.318 41.843-43.161 46.657l-348.519 70.463c-3.22 0.669-6.921 1.052-10.711 1.052-15.343 0-29.22-6.278-39.202-16.406l-523.526-523.527c-10.033-9.972-16.242-23.781-16.242-39.040s6.209-29.068 16.239-39.037l391.043-390.403c9.972-10.033 23.781-16.242 39.040-16.242s29.068 6.209 39.037 16.239l523.523 523.523c10.144 9.99 16.429 23.873 16.429 39.225 0 2.417-0.156 4.797-0.458 7.131zM683.52 507.52c0 0 0 0 0 0-55.847 0-101.12 45.273-101.12 101.12s45.273 101.12 101.12 101.12c55.847 0 101.12-45.273 101.12-101.12 0-0.001 0-0.001 0-0.002 0-55.847-45.273-101.12-101.12-101.12-0.225 0-0.45 0.001-0.675 0.002z" />
<glyph unicode="&#xe909;" glyph-name="eye" horiz-adv-x="1463" d="M731.429-64c-403.749 0-731.429 229.23-731.429 512s327.68 512 731.429 512 731.429-229.23 731.429-512-327.68-512-731.429-512zM731.429 740.571c-161.583 0-292.571-130.989-292.571-292.571s130.989-292.571 292.571-292.571c161.583 0 292.571 130.989 292.571 292.571s-130.989 292.571-292.571 292.571zM731.429 301.714c-80.791 0-146.286 65.494-146.286 146.286s65.494 146.286 146.286 146.286c80.791 0 146.286-65.494 146.286-146.286s-65.494-146.286-146.286-146.286z" />
<glyph unicode="&#xe90a;" glyph-name="flag_full" horiz-adv-x="718" d="M701.44-35.123c-28.16-36.864-80.896-39.475-138.752-0.614l-188.928 127.078c-0.512 0-1.536 0.41-2.048 0.614v-0.461c-3.060 1.19-6.603 1.88-10.306 1.88-0.517 0-1.031-0.013-1.542-0.040-0.283 0.019-0.698 0.028-1.116 0.028-3.624 0-7.087-0.686-10.268-1.934l0.191 0.527c-0.23 0.034-1.209-0.217-2.094-0.634l-189.394-127.059c-57.856-38.861-110.592-36.25-138.24 0.614-19.456 25.6-17.408 63.437-17.408 133.786v675.174c-0.001 0.168-0.001 0.367-0.001 0.565 0 102.255 82.647 185.207 184.786 185.7h347.183c102.186-0.494 184.833-83.445 184.833-185.7 0-0.199 0-0.397-0.001-0.596v-675.144c0-70.502 2.048-108.39-16.896-133.786z" />
<glyph unicode="&#xe90b;" glyph-name="flag_empty" horiz-adv-x="718" d="M697.061-25.051c-27.881-36.49-80.078-39.081-137.352-0.603l-187.021 125.801c-0.508 0-1.523 0.402-2.031 0.603v-0.455c-3.026 1.174-6.535 1.86-10.198 1.86-0.512 0-1.021-0.011-1.528-0.043-0.276 0.016-0.693 0.023-1.102 0.023-3.587 0-7.019-0.683-10.166-1.915l0.19 0.52c-0.232 0.038-1.2-0.211-2.069-0.63l-187.48-125.775c-57.274-38.468-109.481-35.888-136.844 0.603-19.261 25.342-17.23 62.795-17.23 132.434v668.366c-0.001 0.17-0.001 0.367-0.001 0.562 0 101.228 81.811 183.343 182.922 183.825h343.683c101.16-0.493 182.971-82.607 182.971-183.825 0-0.196 0-0.392-0.001-0.588v-668.341c0-69.786 2.031-107.302-16.722-132.434zM612.931 230.138v537.551c0.004 0.368 0.007 0.792 0.007 1.225 0 48.98-39.321 88.78-88.127 89.545l-331.034 0.001c-48.877-0.766-88.197-40.567-88.197-89.546 0-0.434 0.003-0.857 0.008-1.29l-0.001-652.795c-0.002-4.908 0.371-11.028 1.085-17.048-9.526-4.391 1.132 0.438 10.289 7.171l180.216 123.716c11.536 8.27 30.188 15.205 50.359 16.559l0.326 0.68c3.046 0.306 6.082 0.455 9.128 0.603 0.508 0 1.015 0 1.523 0h1.523c0.508 0 0.508 0 1.015 0 3.046 0 6.082-0.306 9.128-0.603v-0.508c16.328-0.3 35.193-6.473 51.089-16.824l180.028-123.626c4.051-2.633 7.097-4.664 10.133-6.283 0.39 1.326 1.226 8.618 1.516 16.049l0.007 115.475z" />
<glyph unicode="&#xe90c;" glyph-name="folder" horiz-adv-x="1280" d="M10 70c4.373-67.464 58.204-121.421 125.589-125.974l1008.411-0.026c66.939 5.238 120.437 58.564 125.967 125.505l0.033 630.495c-6.516 66.059-59.107 118.945-125.389 125.948l-504.611 0.052v63c-2.049 33.81-29.043 60.864-62.806 62.99l-252.194 0.010c-33.81-2.049-60.864-29.043-62.99-62.806l-0.010-756.194c0-34.797-28.203-63-63-63s-63 28.203-63 63v630c0 34.797-28.203 63-63 63s-63-28.203-63-63v-693z" />
<glyph unicode="&#xe90d;" glyph-name="lightning" horiz-adv-x="614" d="M404.992 960l-293.376-71.117-111.616-540.57 293.376 42.65-55.808-454.963 376.832 696.883-363.008-56.883z" />
<glyph unicode="&#xe90e;" glyph-name="search" horiz-adv-x="1022" d="M163.328 494.080c1.966 162.502 134.157 293.478 296.94 293.478 164.006 0 296.96-132.954 296.96-296.96 0-163.999-132.942-296.948-296.938-296.96-163.741 3.563-295.342 136.369-296.96 300.286zM0 494.080c-0.005-0.763-0.007-1.666-0.007-2.57 0-254.829 205.71-461.612 460.13-463.349 0.344-0.001 0.557-0.001 0.769-0.001 95.807 0 184.683 29.681 257.932 80.349l161.817-166.416s43.008-26.010 102.912 34.662 34.304 104.090 34.304 104.090l-165.888 168.090c43.079 69.545 68.609 153.89 68.609 244.199 0 0.369 0 0.738-0.001 1.106 0.032 1.969 0.051 4.361 0.051 6.757 0 254.238-206.101 460.339-460.339 460.339s-460.339-206.101-460.339-460.339c0-2.432 0.019-4.859 0.056-7.282z" />
<glyph unicode="&#xe90f;" glyph-name="phone-delete" d="M290.469 566.575s184.2-5.895 139.501 188.523c-11.786 60.933-65.497 129.644-137.964 167.169s-148.897 80.249-244.19-111.22c-87.925-176.046 58.453-486.288 190.586-618.569s432.748-323.553 666.56-191.568c171.919 97.209 65.821 217.946 65.821 217.946-15.306 30.365-72.572 77.105-140.857 99.564-85.587 30.066-138.636 3.54-189.23-109.878-101.188 14.835-340.892 251.985-350.227 358.038zM866.646 780.69c-7.535 7.56-17.958 12.238-29.472 12.238s-21.937-4.678-29.471-12.237l-75.645-85.619-76.135 85.618c-7.535 7.56-17.958 12.238-29.472 12.238s-21.937-4.678-29.471-12.237l-25.051-25.298c-7.501-7.56-12.139-17.974-12.139-29.472s4.637-21.912 12.141-29.475l82.027-75.84-82.030-75.843c-7.489-7.566-12.118-17.978-12.118-29.472s4.628-21.906 12.121-29.476l25.046-25.245c7.535-7.56 17.958-12.238 29.472-12.238s21.937 4.678 29.471 12.237l76.136 85.619 75.644-85.618c7.535-7.56 17.958-12.238 29.472-12.238s21.937 4.678 29.471 12.237l25.051 25.25c7.489 7.566 12.118 17.978 12.118 29.472s-4.628 21.906-12.121 29.476l-85.466 75.839 85.47 75.843c7.501 7.56 12.139 17.974 12.139 29.472s-4.637 21.912-12.141 29.475z" />
<glyph unicode="&#xe910;" glyph-name="phone-out" horiz-adv-x="1023" d="M646.429 518.532c6.884-5.993 15.947-9.644 25.86-9.644s18.97 3.651 25.906 9.682l112.786 97.746 41.843-36.2s14.104-10.34 28.209 9.871c2.349 17.866 0 155.148 0 155.148 65.742-78.171 15.843-9.017-46.456 46.525-15.605 6.134-170.28 0.491-170.28 0.491s-41.843 2.818-36.67-18.808l47.016-39.964-111.423-96.849c-6.702-5.208-10.974-13.27-10.974-22.334s4.272-17.121 10.91-22.282zM944.498 242.089c-14.859 28.629-69.675 72.569-134.814 93.472-81.922 28.763-132.697 3.373-181.591-105.228-96.849 14.104-326.276 241.183-335.21 342.731 0 0 176.303-5.643 133.991 180.532-11.357 58.243-62.952 124.115-132.51 160.093s-142.522 76.857-233.728-106.494c-83.686-168.31 55.948-464.971 182.415-591.908s414.193-309.823 637.981-183.354c165.018 94.497 63.469 210.154 63.469 210.154z" />
<glyph unicode="&#xe911;" glyph-name="pin" horiz-adv-x="717" d="M254.971 19.184l103.43-307.214 103.43 307.214h-206.858zM-0.016 70.384h716.83c0 64.259-61.954 121.093-153.61 153.61v307.214c83.225 30.439 145.885 109.428 153.552 203.959l-716.78 0.85c5.67-91.384 67.088-171.355 151.965-204.264l1.636-307.769c-91.651-32.513-153.61-89.35-153.61-153.61z" />
<glyph unicode="&#xe912;" glyph-name="check" horiz-adv-x="1365" d="M1088.445 467.939l-420.11-419.946c2.78 2.040-5.947-14.336-18.129-27.445-13.080-13.938-35.884-25.692-61.403-28.218l-3.724-0.749c-4.389-0.328-8.223-1.258-12.057-1.148-2.019-0.145-4.38-0.221-6.747-0.221-28.966 0-55.218 11.645-74.321 30.521 1.824-4.237-10.495 10.327-18.346 27.392l-199.087 199.583c-19.056 19.024-30.841 45.312-30.841 74.348 0 58.021 47.035 105.058 105.058 105.058 28.975 0 55.218-11.729 74.223-30.699l147.889-147.889 368.623 368.398c19.239 20.262 46.38 32.86 76.451 32.86 58.199 0 105.388-47.181 105.388-105.388 0-30.073-12.593-57.211-32.812-76.408z" />
<glyph unicode="&#xe913;" glyph-name="check-circle" d="M992.604 528.526l-432.639-431.999c2.685 2.27-5.151-12.184-16.040-23.724-18.268-16.213-42.516-26.14-69.078-26.14s-50.81 9.929-69.227 26.278c2.85-4.812-7.55 7.134-14.381 21.141l-178.153 177.167c-16.141 16.487-26.099 39.081-26.099 64.001s9.958 47.511 26.115 64.015c16.602 15.833 39.154 25.584 63.984 25.584s47.382-9.753 64.037-25.634l127.963-127.965 423.679 423.039c-94.113 104.384-229.809 169.712-380.765 169.712-282.771 0-512-229.229-512-512s229.229-512 512-512c282.771 0 512 229.229 512 512 0 63.368-11.512 124.045-32.558 180.059z" />
<glyph unicode="&#xe914;" glyph-name="sms" d="M862.562-49.29h-150.244c-72.615-68.91-145.23-145.23-186.295-190.559-67.107-32.15-64.102 34.605-64.102 34.605v155.954h-300.487c-79.58 6.601-143.209 69.982-150.199 149.622l-0.041 501.428c6.601 79.58 69.982 143.209 149.622 150.2l701.748 0.041c79.689-6.43 143.391-69.91 150.2-149.63l0.037-501.41c-6.43-79.689-69.91-143.391-149.63-150.2zM261.605 451.511c-55.311 0-100.167-44.842-100.167-100.167s44.842-100.167 100.167-100.167c55.311 0 100.167 44.842 100.167 100.167s-44.842 100.167-100.167 100.167zM512 451.511c-55.311 0-100.167-44.842-100.167-100.167s44.842-100.167 100.167-100.167c55.311 0 100.167 44.842 100.167 100.167s-44.842 100.167-100.167 100.167zM762.395 451.511c-55.311 0-100.167-44.842-100.167-100.167s44.842-100.167 100.167-100.167c55.311 0 100.167 44.842 100.167 100.167s-44.842 100.167-100.167 100.167z" />
<glyph unicode="&#xe915;" glyph-name="message" d="M286.635 300.935h450.73c13.83 0 25.046-11.21 25.046-25.046v-49.485c0-0.001 0-0.001 0-0.004 0-13.661-11.075-24.734-24.734-24.734-0.104 0-0.211 0.001-0.314 0.004h-450.71c-0.090-0.001-0.193-0.004-0.295-0.004-13.661 0-24.734 11.075-24.734 24.734 0 0.001 0 0.001 0 0.004v49.83c0.199 13.671 11.33 24.69 25.041 24.69 0.001 0 0.004 0 0.006 0zM186.486 500.898h651.048c0.090 0.001 0.193 0.004 0.295 0.004 13.661 0 24.734-11.075 24.734-24.734 0-0.001 0-0.001 0-0.004v-49.685c0-0.001 0-0.001 0-0.004 0-13.661-11.075-24.734-24.734-24.734-0.104 0-0.211 0.001-0.314 0.004h-651.029c-0.090-0.001-0.193-0.004-0.295-0.004-13.661 0-24.734 11.075-24.734 24.734 0 0.001 0 0.001 0 0.004v49.53c0 0.044 0 0.094 0 0.154 0 13.661 11.075 24.734 24.734 24.734 0.104 0 0.211-0.001 0.314-0.004zM161.44 752c-79.579-6.6-143.21-69.984-150.2-149.621l-0.040-501.428c6.6-79.579 69.984-143.21 149.621-150.2l301.109-0.040v-155.95s-3.008-66.761 64.101-34.606c41.066 45.47 113.679 121.65 186.291 190.555h150.244c79.69 6.43 143.39 69.91 150.2 149.63l0.038 501.409c-6.43 79.69-69.91 143.39-149.63 150.2l-701.729 0.038z" />
<glyph unicode="&#xe916;" glyph-name="message_bubble" d="M161.431 736c-79.581-6.598-143.212-69.985-150.198-149.627l-0.037-501.43c6.598-79.581 69.985-143.212 149.627-150.198l301.109-0.037v-156.005s-3.009-66.703 64.1-34.554c41.068 45.47 113.681 121.692 186.292 190.558h150.245c79.581 6.598 143.212 69.985 150.198 149.627l0.037 501.43c-6.598 79.581-69.985 143.212-149.627 150.198l-701.75 0.037z" />
<glyph unicode="&#xe917;" glyph-name="textcopy" horiz-adv-x="1280" d="M179.2 768h716.8c28.281 0 51.2-22.919 51.2-51.2v-102.4c0-28.281-22.919-51.2-51.2-51.2h-716.8c-28.281 0-51.2 22.919-51.2 51.2v102.4c0 28.281 22.919 51.2 51.2 51.2zM204.8 460.8h870.4c42.419 0 76.8-34.38 76.8-76.8v-51.2c0-42.419-34.38-76.8-76.8-76.8h-870.4c-42.419 0-76.8 34.38-76.8 76.8v51.2c0 42.419 34.38 76.8 76.8 76.8zM204.8 153.6h665.6c42.419 0 76.8-34.38 76.8-76.8v-51.2c0-42.419-34.38-76.8-76.8-76.8h-665.6c-42.419 0-76.8 34.38-76.8 76.8v51.2c0 42.419 34.38 76.8 76.8 76.8z" />
<glyph unicode="&#xe918;" glyph-name="wallet" horiz-adv-x="1138" d="M569.458 361.813c-0.181 2.085-0.284 4.511-0.284 6.962 0 47.128 38.205 85.333 85.333 85.333s85.333-38.205 85.333-85.333c0-2.45-0.103-4.877-0.306-7.275-0.378-45.575-37.218-82.736-82.95-83.654-46.909 0.408-84.982 37.4-87.119 83.773zM608.142 504.832c-49.493 0-95.573-63.602-95.573-142.222s46.080-142.222 95.573-142.222h490.382c22.038 1.765 39.254 20.085 39.254 42.425 0 0.085 0 0.17-0.001 0.255v197.221c0.001 0.133 0.002 0.291 0.002 0.448 0 22.669-17.065 41.353-39.050 43.906l-490.588 0.019zM170.667 789.276c-30.945 1.067-55.797 25.904-56.886 56.787 2.937 29.929 26.684 53.805 56.609 56.967l739.833 0.024c-20.011 34.774-56.962 57.811-99.293 57.811-5.106 0-10.134-0.335-15.063-0.985l-682.088 0.062c-4.657 0.772-10.023 1.214-15.493 1.214-54.952 0-99.499-44.547-99.499-99.499 0-5.469 0.441-10.836 1.29-16.065l-0.077-629.699c-0.016-0.575-0.025-1.251-0.025-1.93 0-3.331 0.216-6.611 0.634-9.827-0.609-18.28-0.609-25.903-0.609-40.637 21.535-108.334 110.985-200.287 225.508-227.151l741.603-0.405c4.657-0.772 10.023-1.214 15.493-1.214 54.952 0 99.499 44.547 99.499 99.499 0 5.469-0.441 10.836-1.29 16.065l0.077 113.205h-455.111c-127.431 1.764-170.098 79.644-170.098 186.709s42.667 211.57 170.098 211.57h455.111v113.778c0.772 4.657 1.214 10.023 1.214 15.493 0 54.952-44.547 99.499-99.499 99.499-5.469 0-10.836-0.441-16.065-1.29l-795.872 0.077z" />
<glyph unicode="&#xe919;" glyph-name="nav-arrow-down-small" d="M149.768 85.944c-92.544 92.719-149.767 220.705-149.767 362.056s57.223 269.337 149.759 362.048c92.653 92.648 220.649 149.952 362.030 149.952 282.77 0 512-229.23 512-512s-229.23-512-512-512c-141.38 0-269.376 57.304-362.029 149.952zM149.76 85.952c92.653-92.648 220.649-149.952 362.029-149.952 282.77 0 512 229.23 512 512s-229.23 512-512 512c-141.38 0-269.376-57.304-362.030-149.952-92.536-92.711-149.759-220.697-149.759-362.048s57.223-269.337 149.767-362.056zM463.385 277.35c11.912-12.488 28.715-20.269 47.335-20.269s35.424 7.781 47.36 20.294l189.416 196.262c12.207 12.747 19.706 30.039 19.706 49.082s-7.5 36.334-19.682 49.056l-47.386 49.116c-11.894 12.519-28.702 20.324-47.334 20.324s-35.44-7.805-47.36-20.352l-94.72-98.176-94.106 98.204c-11.894 12.519-28.702 20.324-47.334 20.324s-35.44-7.805-47.36-20.352l-47.336-49.062c-12.207-12.747-19.706-30.039-19.706-49.082s7.5-36.334 19.682-49.056l142.080-147.2 46.72-49.088z" />
<glyph unicode="&#xe91a;" glyph-name="pencil" d="M260.132 322.921v-125.695h125.695l502.783 502.783c0 0.067 0 0.146 0 0.223 0 30.181-10.675 57.87-28.456 79.496-19.865 22.076-55.948 41.39-96.5 45.908zM8.741 448.616v-404.992c-0.545-3.655-0.856-7.873-0.856-12.164 0-47.969 38.887-86.856 86.856-86.856 5.142 0 10.18 0.447 15.077 1.304l401.706-0.076 502.783 502.783v62.848c1.806 16.795-24.207 77.069-63.394 126.408l-502.236-503.494v-125.695h-251.392l-125.695 125.695v251.392h125.695l502.783 502.783c-12.366 16.883-64.637 48.327-123.642 62.434l-64.902 0.414z" />
<glyph unicode="&#xe91b;" glyph-name="cancel" d="M874.24 85.952c-92.653-92.648-220.649-149.952-362.029-149.952-282.77 0-512 229.23-512 512s229.23 512 512 512c141.38 0 269.376-57.304 362.030-149.952 92.536-92.711 149.759-220.697 149.759-362.048s-57.223-269.337-149.767-362.056zM747.52 543.616c12.152 12.082 19.673 28.811 19.673 47.296s-7.521 35.214-19.67 47.293l-47.363 47.299c-12.131 12.098-28.872 19.578-47.36 19.578s-35.229-7.48-47.362-19.579l-94.718-94.59-94.080 94.592c-12.131 12.098-28.872 19.578-47.36 19.578s-35.229-7.48-47.362-19.579l-47.358-47.294c-12.152-12.082-19.673-28.811-19.673-47.296s7.521-35.214 19.67-47.293l94.723-94.595-94.72-94.528c-12.152-12.082-19.673-28.811-19.673-47.296s7.521-35.214 19.67-47.293l47.363-47.299c12.131-12.098 28.872-19.578 47.36-19.578s35.229 7.48 47.362 19.579l94.078 94.59 94.72-94.592c12.131-12.098 28.872-19.578 47.36-19.578s35.229 7.48 47.362 19.579l47.358 47.294c12.152 12.082 19.673 28.811 19.673 47.296s-7.521 35.214-19.67 47.293l-94.723 94.531z" />
<glyph unicode="&#xe91c;" glyph-name="people" d="M312.070 63.599h-312.070c14.738 179.424 144.18 320.401 303.74 320.401 81.967-0.658 157.078-37.575 208.641-95.821-88.564-28.724-170.658-114.61-199.777-222.264zM319.76 832.561c106.172 0 192.24-86.069 192.24-192.24s-86.069-192.24-192.24-192.24c-106.172 0-192.24 86.069-192.24 192.24s86.069 192.24 192.24 192.24zM384.481-64.561c0 176.599 143.161 319.76 319.76 319.76s319.76-143.161 319.76-319.76h-639.519zM704.24 704.401c106.172 0 192.24-86.069 192.24-192.24s-86.069-192.24-192.24-192.24c-106.172 0-192.24 86.069-192.24 192.24s86.069 192.24 192.24 192.24z" />
<glyph unicode="&#xe91d;" glyph-name="person" horiz-adv-x="896" d="M6.958-29.648c0-8.884 0.63-26.399 0.63-26.399h880.823c0.63 8.758 0.63 17.516 0.63 26.399 0 233.122-158.145 415.146-437.891 415.146-298.018 0-444.192-182.087-444.192-415.146zM195.976 706.576c0-139.189 112.835-252.024 252.024-252.024s252.024 112.835 252.024 252.024c-0.072 139.135-112.879 251.898-252.024 251.898-139.189 0-252.024-112.835-252.024-252.024 0-0.044 0-0.089 0-0.133z" />
<glyph unicode="&#xe91e;" glyph-name="medal" d="M569.19 927.829l15.667-26.266c11.887-19.691 33.17-32.654 57.481-32.654 11.991 0 23.246 3.154 32.98 8.678l26.361 14.743c9.4 5.346 20.651 8.497 32.638 8.497 36.63 0 66.389-29.424 66.928-65.926l0.427-30.634c0.521-36.228 29.752-65.459 65.93-65.979l30.633-0.427c36.553-0.54 65.977-30.298 65.977-66.929 0-11.987-3.151-23.238-8.67-32.97l-14.743-26.36c-5.347-9.401-8.499-20.654-8.499-32.642 0-24.311 12.96-45.595 32.349-57.319l26.565-15.835c19.691-11.888 32.654-33.17 32.654-57.481s-12.963-45.593-32.354-57.313l-26.565-15.835c-19.688-11.892-32.648-33.176-32.648-57.487 0-11.989 3.152-23.241 8.672-32.974l14.743-26.377c5.347-9.4 8.499-20.651 8.499-32.638 0-36.628-29.428-66.383-65.93-66.911l-30.633-0.427c-36.23-0.53-65.459-29.765-65.979-65.947l-0.427-30.616c-0.524-36.556-30.281-65.989-66.912-65.989-11.994 0-23.251 3.155-32.986 8.682l-26.361 14.743c-9.399 5.344-20.649 8.495-32.635 8.495-24.316 0-45.604-12.966-57.326-32.361l-15.835-26.548c-11.888-19.691-33.17-32.654-57.481-32.654s-45.593 12.963-57.313 32.354l-15.835 26.548c-11.891 19.695-33.178 32.661-57.494 32.661-11.986 0-23.235-3.15-32.967-8.668l-26.377-14.743c-9.4-5.347-20.651-8.499-32.638-8.499-36.628 0-66.383 29.428-66.911 65.93l-0.427 30.616c-0.53 36.234-29.763 65.467-65.947 65.996l-30.617 0.427c-36.552 0.529-65.98 30.284-65.98 66.912 0 11.987 3.152 23.238 8.672 32.97l14.743 26.378c5.344 9.399 8.495 20.649 8.495 32.635 0 24.316-12.966 45.604-32.361 57.326l-26.548 15.835c-19.691 11.888-32.654 33.17-32.654 57.481s12.963 45.593 32.354 57.313l26.548 15.835c19.695 11.891 32.661 33.178 32.661 57.494 0 11.986-3.15 23.235-8.668 32.967l-14.743 26.36c-5.353 9.404-8.508 20.661-8.508 32.655 0 36.631 29.433 66.388 65.94 66.911l30.616 0.427c36.232 0.521 65.467 29.749 65.996 65.929l0.427 30.634c0.529 36.552 30.284 65.98 66.912 65.98 11.987 0 23.238-3.152 32.97-8.672l26.378-14.743c9.402-5.351 20.657-8.505 32.648-8.505 24.31 0 45.593 12.963 57.313 32.354l15.835 26.565c11.888 19.691 33.17 32.654 57.481 32.654s45.593-12.963 57.313-32.354z" />
<glyph unicode="&#xe91f;" glyph-name="forum" d="M960 352h-85.12l-170.88-128v128h-192c-35.346 0-64 28.654-64 64v384c0 35.346 28.654 64 64 64h448c35.346 0 64-28.654 64-64v-384c0-35.346-28.654-64-64-64zM576 288v-64c0-35.346-28.654-64-64-64h-192v-128l-170.88 128h-85.12c-35.346 0-64 28.654-64 64v384c0 35.346 28.654 64 64 64h320v-320c0-35.346 28.654-64 64-64h128z" />
<glyph unicode="&#xe920;" glyph-name="nav-arrow-left" d="M681.686 151.702c13.936 15.107 22.472 35.358 22.472 57.609s-8.544 42.514-22.53 57.671l-187.513 180.912 187.558 180.712c13.986 15.157 22.567 35.496 22.567 57.84s-8.583 42.681-22.624 57.89c-13.715 14.707-33.28 23.911-55.003 23.911s-41.281-9.202-55.007-23.916l-222.813-231.972c-1.28-1.6-3.84-2.301-5.76-4.102-10.003-9.305-18.91-26.305-21.091-45.339-1.402-6.020-2.181-12.505-2.181-19.17 0-22.107 8.622-42.197 22.672-57.089-5.039 4.093 1.537-2.261 9.303-6.79l220.475-228.353c13.67-14.636 33.091-23.762 54.647-23.762 21.639 0 41.133 9.202 54.775 23.913z" />
<glyph unicode="&#xe921;" glyph-name="nav-arrow-right" d="M342.673 152.937c-14.016 15.034-22.622 35.272-22.622 57.51s8.606 42.49 22.67 57.564l187.196 180.037-187.244 179.9c-13.923 15.075-22.46 35.295-22.46 57.51s8.543 42.449 22.516 57.574c13.724 14.63 33.247 23.776 54.91 23.776s41.184-9.144 54.92-23.796l222.433-230.868c1.28-1.658 3.838-2.296 5.756-4.158 9.979-9.241 18.868-26.137 21.056-45.077 1.374-5.956 2.146-12.378 2.146-18.984 0-22.053-8.585-42.091-22.606-56.958 5 4.017-1.551-2.251-9.278-6.713l-220.101-227.27c-13.681-14.654-33.106-23.795-54.672-23.795-21.535 0-40.936 9.105-54.568 23.686z" />
<glyph unicode="&#xe922;" glyph-name="nav-arrow-up" d="M198.173 268.337c15.942-14.871 37.405-23.995 61.002-23.995s45.065 9.128 61.055 24.043l191.766 198.754 191.144-198.742c16.051-14.905 37.633-24.042 61.343-24.042s45.294 9.143 61.405 24.085c15.592 14.447 25.354 35.1 25.354 58.038s-9.764 43.593-25.364 58.040l-245.418 235.858c-2.034 2.034-2.715 4.408-4.744 6.303-9.159 10.146-27.294 19.995-47.671 22.788-6.311 1.417-13.035 2.189-19.944 2.189-23.66 0-45.18-9.141-61.227-24.083 5.925 7.238-1.704-0.747-7.221-10.125l-241.48-233.3c-15.65-14.429-25.418-35.037-25.418-57.919s9.768-43.488 25.364-57.868z" />
<glyph unicode="&#xe923;" glyph-name="nav-arrow-down" d="M199.202 627.632c15.945 14.871 37.405 23.995 61.002 23.995s45.060-9.125 61.056-24.043l190.408-198.752 191.143 198.73c15.919 14.928 37.389 24.094 61.002 24.094s45.085-9.171 61.048-24.139c15.599-14.448 25.361-35.109 25.361-58.040s-9.759-43.591-25.361-58.039l-244.741-235.858c-2.034-1.968-2.71-4.408-4.746-6.301-9.159-10.142-27.294-19.991-47.672-22.791-6.222-1.381-12.839-2.141-19.635-2.141-23.529 0-44.932 9.124-60.852 24.030 5.919-7.24-1.71 0.751-7.226 10.13l-240.797 233.29c-15.65 14.429-25.418 35.031-25.418 57.918s9.768 43.488 25.363 57.866z" />
<glyph unicode="&#xe924;" glyph-name="star-empty" d="M628.16 584.896c222.72-39.744 227.84-52.48 72.32-207.936 26.24-208.64 14.72-218.752-188.8-128.512-202.88-90.24-214.4-85.184-188.16 128.512-155.52 155.456-150.4 168.192 72.32 207.936 109.44 187.008 122.88 187.008 232.32 0zM713.92 707.008c-190.080 337.856-214.4 337.856-403.84 0-385.92-71.744-394.24-94.848-124.16-375.744-46.72-386.048-26.24-395.264 325.76-232.192 352.64-163.072 373.12-144.832 326.4 232.192 270.080 280.896 261.76 304-124.16 375.744z" />
<glyph unicode="&#xe925;" glyph-name="star" d="M713.6 706.432c385.28-71.744 393.6-94.72 124.16-375.424 46.72-376.768 26.24-395.008-325.76-232.064-351.36-162.944-371.84-153.6-325.76 232.064-269.44 280.704-260.48 303.68 124.8 375.424 188.8 337.6 213.12 337.6 402.56 0z" />
<glyph unicode="&#xe926;" glyph-name="arrow-left" d="M15.36 405.76s299.2-415.040 346.88-454.4c82.56-52.8 117.76 47.040 117.76 47.040v129.6h448c3.030-0.377 6.537-0.592 10.095-0.592 47.717 0 86.4 38.683 86.4 86.4 0 3.252-0.18 6.462-0.53 9.621l0.035 449.531c0.315 2.77 0.495 5.98 0.495 9.232 0 47.717-38.683 86.4-86.4 86.4-3.557 0-7.064-0.215-10.509-0.633l-447.586 0.041v129.6s-35.2 99.84-117.76 47.040c-47.68-39.36-346.88-454.4-346.88-454.4-9.554-11.34-15.36-26.112-15.36-42.24s5.806-30.9 15.441-42.339z" />
<glyph unicode="&#xe927;" glyph-name="arrow-right" d="M1008.64 405.76s-299.2-415.040-346.88-454.4c-82.56-52.8-117.76 47.040-117.76 47.040v129.6h-448c-3.030-0.377-6.537-0.592-10.095-0.592-47.717 0-86.4 38.683-86.4 86.4 0 3.252 0.18 6.462 0.53 9.621l-0.035 449.531c-0.315 2.77-0.495 5.98-0.495 9.232 0 47.717 38.683 86.4 86.4 86.4 3.557 0 7.064-0.215 10.509-0.633l447.586 0.041v129.6s35.2 99.84 117.76 47.040c47.68-39.36 346.88-454.4 346.88-454.4 9.554-11.34 15.36-26.112 15.36-42.24s-5.806-30.9-15.441-42.339z" />
<glyph unicode="&#xe928;" glyph-name="bubble" d="M512 736c159.048 0 288-128.952 288-288s-128.952-288-288-288c-159.048 0-288 128.952-288 288s128.952 288 288 288z" />
<glyph unicode="&#xe929;" glyph-name="paper-text" horiz-adv-x="960" d="M217.92 639.68h268.48c0.342 0.017 0.742 0.026 1.144 0.026 13.312 0 24.174-10.488 24.774-23.652l0.002-47.734c-0.573-13.383-11.562-24.016-25.034-24.016-0.311 0-0.622 0.006-0.93 0.017l-268.435-0.001c-0.278-0.011-0.603-0.017-0.931-0.017-13.53 0-24.584 10.603-25.306 23.953l-0.003 47.744c0.752 13.249 11.68 23.708 25.050 23.708 0.419 0 0.835-0.010 1.248-0.031zM217.28 479.68h525.44c0.196 0.006 0.427 0.009 0.658 0.009 13.45 0 24.416-10.639 24.94-23.961l0.001-47.728c-0.555-13.203-11.394-23.697-24.683-23.697-0.322 0-0.643 0.006-0.963 0.018l-525.394-0.001c-0.273-0.011-0.594-0.017-0.917-0.017-13.289 0-24.128 10.494-24.682 23.647l-0.002 47.73c0.526 13.37 11.491 24.009 24.942 24.009 0.231 0 0.462-0.003 0.692-0.009zM217.28 320.32h525.44c0.196 0.006 0.427 0.009 0.658 0.009 13.45 0 24.416-10.639 24.94-23.961l0.001-48.368c-0.526-13.37-11.491-24.009-24.942-24.009-0.231 0-0.462 0.003-0.692 0.009l-525.406-0.001c-0.196-0.006-0.427-0.009-0.658-0.009-13.45 0-24.416 10.639-24.94 23.961l-0.001 48.368c0.526 13.37 11.491 24.009 24.942 24.009 0.231 0 0.462-0.003 0.692-0.009zM160 960c-86.937-3.198-156.721-72.935-159.991-159.695l-0.009-704.305c3.198-86.937 72.935-156.721 159.695-159.991l640.305-0.009c86.937 3.198 156.721 72.935 159.991 159.695l0.009 512.305h-128c-157.44 0-224 53.76-224 224v128h-448zM672 960v-128c3.198-86.937 72.935-156.721 159.695-159.991l128.305-0.009z" />
<glyph unicode="&#xe92a;" glyph-name="phone" horiz-adv-x="992" d="M277.361 523.97s176.856-5.884 134.187 180.388c-11.386 57.93-63.068 123.86-132.705 159.972s-142.732 76.915-233.956-106.414c-84.16-168.616 55.913-465.239 182.446-592.068s414.919-309.866 639.152-183.329c164.79 92.989 63.267 208.637 63.267 208.637-14.415 28.761-69.339 73.657-134.829 95.355-82.341 28.825-133.249 3.221-181.805-105.067-97.107 13.83-326.932 241.006-335.761 342.528z" />
<glyph unicode="&#xe92b;" glyph-name="logo" horiz-adv-x="819" d="M409.6-64c-176.722 34.14-409.6 180.572-409.6 365.711v493.711h109.22v-475.423c0-186.368 300.319-274.289 300.319-274.289s300.339 87.9 300.339 274.289v530.289h-364.052v-365.711c0-36.864 63.713-54.866 63.713-54.866s63.713 17.92 63.713 54.866v219.423h109.22v-228.577c0-79.34-97.178-140.8-172.933-155.423-75.776 14.623-172.913 76.083-172.913 155.423v484.577h582.451v-658.289c0-185.139-232.796-331.571-409.477-365.711z" />
<glyph unicode="&#xe92c;" glyph-name="dislike" horiz-adv-x="1138" d="M134.248 438.88c-14.429-22.575-23.003-50.096-23.003-79.632 0-2.088 0.037-4.166 0.13-6.221-0.13-1.482-0.202-3.562-0.202-5.646 0-50.538 40.968-91.501 91.501-91.501 0.077 0 0.13 0 0.202 0h182.997l-22.874-22.874c-60.698-72.3 21.483-192.849 21.483-192.849 42.764-51.019 57.763-58.572 92.892-58.572 3.426-0.337 7.409-0.514 11.436-0.514s8.014 0.182 11.933 0.546 73.73-8.73 91.007 91.231c0.078 31.571 47.012 117.657 114.261 182.893l0.119 45.864c0 22.644-1.468 45.754 45.754 45.754h205.883c1.639-0.15 3.562-0.234 5.494-0.234 35.001 0 63.36 28.361 63.36 63.36 0 1.944-0.078 3.855-0.254 5.745l0.026 319.804c0.15 1.639 0.234 3.562 0.234 5.494 0 35.001-28.361 63.36-63.36 63.36-1.944 0-3.855-0.078-5.745-0.254l-205.646 0.026c-28.516-1.762-54.749-19.672-68.4-45.288-11.39 13.266-42.972 45.288-68.864 45.288h-343.148c-54.048 0-100.223-64.968-100.223-120.553-0.026-9.593 3.25-25.674 9.033-40.522-16.555-13.805-27.893-36.472-28.997-61.783-0.012-0.338-0.012-0.494-0.012-0.65 0-10.165 2.14-19.837 5.999-28.594-16.249-19.368-25.972-44.896-25.972-72.709 0-0.338 0.004-0.677 0.007-1.014-0.247-3.042-0.39-6.637-0.39-10.27 0-10.529 1.204-20.772 3.476-30.609zM751.925 713.167h183.008v-274.297h-183.008v274.297zM225.754 393.125c22.874 18.992 21.236 48.731 7.201 75.49-1.58 2.939-2.491 6.442-2.491 10.165 0 0.046 0 0.090 0.001 0.137-0.006 0.105-0.007 0.234-0.007 0.371 0 6.673 3.061 12.609 7.859 16.516 13.642 11.022 22.257 27.694 22.257 46.4 0 10.7-2.834 20.748-7.773 29.423-1.43 2.678-2.366 6.213-2.366 9.965 0 6.785 3.042 12.866 7.826 16.924 13.649 10.972 22.28 27.632 22.28 46.3 0 10.654-2.815 20.66-7.731 29.297-0.858 3.569-1.43 8.015-1.43 12.591 0 1.272 0.040 2.522 0.13 3.766 0.306 12.333 10.368 22.384 22.845 22.704l320.308 0.001c23.331-3.146 42.192-21.806 45.726-45.466l0.028-183.309c0.754-55.14-44.402-42.773-45.754-114.157v-68.627c-45.468-38.253-96.531-126.419-114.001-226.129-3.816-2.321-7.794-2.158-11.829-2.158s-8.015-0.182-11.941-0.519-82.128 77.136-22.368 160.171l22.874 22.874c0 91.744 0.338 91.501-91.501 91.501h-160.128c-12.505 0.319-22.549 10.373-22.874 22.852 1.482 5.854 10.732 16.457 22.592 22.758zM797.807 644.527c0 12.632 10.24 22.874 22.874 22.874s22.874-10.24 22.874-22.874c0-12.632-10.24-22.874-22.874-22.874s-22.874 10.24-22.874 22.874z" />
<glyph unicode="&#xe92d;" glyph-name="dots" horiz-adv-x="256" d="M128 200c68.473 0 124-55.515 124-124s-55.527-124-124-124c-68.473 0-124 55.515-124 124s55.527 124 124 124zM128 572c68.473 0 124-55.515 124-124s-55.527-124-124-124c-68.473 0-124 55.515-124 124s55.527 124 124 124zM128 944c68.473 0 124-55.515 124-124s-55.527-124-124-124c-68.473 0-124 55.515-124 124s55.527 124 124 124z" />
<glyph unicode="&#xe92e;" glyph-name="like" horiz-adv-x="1137" d="M1002.834 397.834c14.416 22.532 22.977 50.017 22.977 79.497 0 2.034-0.040 4.058-0.123 6.070 0.141 1.557 0.218 3.713 0.218 5.885 0 50.508-40.944 91.452-91.452 91.452-0.074 0-0.146 0-0.221 0h-182.891l22.862 22.862c60.657 72.475-21.469 192.965-21.469 192.965-42.733 50.756-57.728 58.532-92.847 58.532-3.422 0.274-7.405 0.43-11.432 0.43s-8.011-0.155-11.953-0.461-73.646 8.719-90.928-91.422c-0.083-31.548-46.98-117.59-114.2-182.795l-0.114-45.836c0-22.633 1.463-45.727-45.727-45.727h-205.768c-1.645 0.151-3.56 0.238-5.496 0.238-34.976 0-63.329-28.353-63.329-63.329 0-1.936 0.084-3.851 0.256-5.741l-0.019-319.84c-0.151-1.645-0.238-3.56-0.238-5.496 0-34.976 28.353-63.329 63.329-63.329 1.936 0 3.851 0.084 5.741 0.256l205.524-0.019c28.59 1.71 54.806 19.621 68.363 45.261 11.381-13.484 42.954-45.261 68.815-45.261h342.946c54.023 0 100.16 64.704 100.16 120.488 0.032 9.587-3.252 25.663-9.032 40.493 16.538 13.799 27.874 36.445 28.984 61.743 0.008 0.331 0.008 0.49 0.008 0.65 0 10.166-2.138 19.833-5.987 28.58 16.245 19.506 25.969 45.167 25.969 73.093 0 0.266-0.001 0.531-0.003 0.797 0.242 3.014 0.385 6.573 0.385 10.165 0 10.566-1.207 20.847-3.49 30.72zM385.526 123.474h-182.903v274.358h182.903v-274.358zM911.381 443.562c-22.862-18.976-21.218-48.925-7.2-75.679 1.562-2.902 2.487-6.371 2.491-10.055 0-0.046 0.001-0.102 0.001-0.157 0-6.798-3.048-12.886-7.858-16.967-13.62-11.012-22.236-27.678-22.236-46.362 0-10.697 2.827-20.735 7.769-29.406 1.429-2.614 2.364-6.070 2.364-9.745 0-0.085-0.001-0.175-0.002-0.263 0.001-0.029 0.001-0.082 0.001-0.134 0-6.727-3.043-12.743-7.831-16.743-13.64-10.966-22.269-27.609-22.269-46.267 0-10.648 2.813-20.64 7.732-29.274 0.855-3.571 1.43-8.010 1.43-12.581 0-1.265-0.045-2.516-0.13-3.758-0.307-12.323-10.356-22.371-22.823-22.693l-320.116-0.001c-23.323 3.144-42.168 21.785-45.691 45.431l-0.034 183.2c-0.753 55.327 44.377 42.752 45.727 114.315v68.589c45.44 38.236 96.471 126.34 113.931 225.998 3.802 2.388 7.793 2.25 11.815 2.25s8.013 0.138 11.966 0.417 82.049-77.081 22.329-160.074l-22.862-22.862c0-91.682-0.342-91.452 91.452-91.452h160.041c12.491-0.318 22.539-10.367 22.861-22.834-1.609-6.117-10.783-16.594-22.573-22.755zM339.665 192.063c0-12.627-10.237-22.862-22.862-22.862s-22.862 10.237-22.862 22.862c0 12.627 10.237 22.862 22.862 22.862s22.862-10.237 22.862-22.862z" />
<glyph unicode="&#xe92f;" glyph-name="microphone" horiz-adv-x="717" d="M409.6 144.497v-106.097h102.4c28.277 0 51.2-22.923 51.2-51.2s-22.923-51.2-51.2-51.2h-307.2c-28.277 0-51.2 22.923-51.2 51.2s22.923 51.2 51.2 51.2h102.4v106.097c-174.681 25.921-307.189 174.836-307.2 354.702v81.921c0 28.277 22.923 51.2 51.2 51.2s51.2-22.923 51.2-51.2v-81.92c0-141.385 114.615-256 256-256s256 114.615 256 256v81.92c0 28.277 22.923 51.2 51.2 51.2s51.2-22.923 51.2-51.2v-81.92c-0.010-179.866-132.517-328.781-305.239-354.464zM358.4 304.64c-107.453 0-194.56 87.107-194.56 194.56v266.24c0 107.453 87.107 194.56 194.56 194.56s194.56-87.107 194.56-194.56v-266.24c0-107.453-87.107-194.56-194.56-194.56zM450.56 765.44c0 50.899-41.261 92.16-92.16 92.16s-92.16-41.261-92.16-92.16v-266.24c0-50.899 41.261-92.16 92.16-92.16s92.16 41.261 92.16 92.16v266.24z" />
<glyph unicode="&#xe930;" glyph-name="fb" horiz-adv-x="512" d="M114.066 394.24v-458.24h215.259v456.046h146.944l35.547 189.806h-180.955v139.703c-0.131 1.23-0.206 2.657-0.206 4.101 0 22.358 17.945 40.524 40.218 40.882h104.555v193.463h-195.365c-67.365 0-166.875-85.943-166.875-177.371v-195.291h-112.823v-192.366z" />
<glyph unicode="&#xe931;" glyph-name="tw" horiz-adv-x="1303" d="M1303.273 838.982c-14.921-10.829-80.938-32.42-151.029-40.712 39.223 16.877 90.601 72.39 114.444 140.806-5.024-8.296-82.025-43.547-165.776-59.957-52.746 49.711-121.329 80.886-197.193 80.886-0.521 0-1.042-0.001-1.562-0.004-1.193 0.023-2.694 0.035-4.199 0.035-143.644 0-260.405-115.106-263.075-258.112-0.004-0.352-0.004-0.473-0.004-0.594 0-20.854 2.529-41.118 7.296-60.501-212.065 6.923-413.754 110.261-550.569 270.627-23.63-35.862-37.102-80.607-37.102-128.499 0-0.103 0-0.207 0-0.31 0.206-89.892 47.152-169.109 117.901-214.411-39.447-0.265-83.16 11.614-121.474 32.231l1.479-3.985c1.473-126.036 92.713-230.71 212.875-252.96-19.485-6.158-43.705-9.556-68.719-9.556-0.034 0-0.069 0-0.103 0-16.586 0.008-34.631 1.703-52.137 4.935 38.591-104.657 136.342-178.58 251.482-179.479-90.662-69.147-205.642-110.781-330.346-110.781-0.563 0-1.125 0.001-1.687 0.003-1.061-0.010-2.417-0.016-3.775-0.016-21.133 0-41.949 1.359-62.365 3.993 118.389-73.288 259.447-116.62 410.626-116.62 0.586 0 1.172 0.001 1.758 0.002 5.379-0.145 11.819-0.227 18.279-0.227 407.641 0 738.547 328.544 742.367 735.283q0.003 17.119-0.742 33.875c-8.442-17.975 73.789 48.274 132.212 132.317z" />
<glyph unicode="&#xe932;" glyph-name="vk" horiz-adv-x="1828" d="M1534.491 246.339c-136.814 121.075-118.421 101.152 46.589 311.635 100.537 127.718 140.947 205.371 128.433 239.088-12.157 31.672-86.134 23.498-86.134 23.498l-245.932-1.53c-1.734 0.177-3.745 0.276-5.781 0.276-9.452 0-18.393-2.178-26.35-6.058-3.163-0.367-14.286-11.142-21.078-24.497 60.611 136.712-1.999-36.231-94.197-189.345-106.087-171.714-149.872-180.396-168.007-169.669-41.331 25.544-31.007 103.197-31.007 158.369 0 171.654 27.484 256.966-53.387 275.359-25.921 12.945-63.141 22.67-102.494 24l-80.452 0.013c-46.881-0.218-94.832-12.279-137.389-33.534-26.449-12.444-48.009-48.718-34.467-50.248 24.979-1.562 52.714-16.128 72.127-38.187 15.659-29.494 24.785-64.318 24.785-101.278 0-2.337-0.034-4.665-0.108-6.982s14.362-202.475-34.065-227.51c-33.209-17.37-78.469 17.37-175.895 178.297 101.047-167.674-8.393-10.886-84.262 163.86-3.104 12.325-11.927 25.909-23.913 35.79-3.299 3.554-19.486 11.072-37.163 14.303l-234.39-0.409c-0.629 0.020-1.376 0.030-2.119 0.030-17.165 0-33.085-5.362-46.165-14.505-2.805-5.58-4.607-12.413-4.607-19.666 0-6.52 1.458-12.695 4.058-18.232s182.986-407.417 389.737-612.788c100.922-105.252 242.695-170.664 399.737-170.664 2.090 0 4.178 0.013 6.262 0.032l97.414-0.003c1.739-0.167 3.756-0.267 5.799-0.267 14.594 0 28.048 4.902 38.8 13.15 7.97 8.537 13.135 20.453 13.281 33.573s-1.838 125.706 58.803 144.098 137.272-120.053 218.958-173.699c26.555-20.056 60.124-32.124 96.505-32.124 4.223 0 8.411 0.161 12.556 0.483l218.052 3.030s113.923 7.151 59.618 92.47c-3.783 7.666-31.114 63.351-162.15 179.828z" />
<glyph unicode="&#xe933;" glyph-name="gl" d="M539.039 137.459c0.001 0.161 0.001 0.353 0.001 0.543 0 8.6-1.004 16.967-2.903 24.988-1.704 7.532-3.79 14.616-5.678 21.307 0.903 0.861-3.834 12.077-10.909 21.426l-12.785 18.721c9.667-11.981-1.647 4.765-16.197 18.018-7.457 7.171-13.124 12.288-17.021 15.831s-10.43 8.659-19.679 15.744-15.744 11.414-19.049 14.169-10.233 7.084-20.27 14.169-16.334 11.021-18.774 12.595c-7.732 1.041-16.669 1.636-25.746 1.636-1.756 0-3.507-0.022-5.252-0.067-22.148 0.002-45.099-1.571-67.583-4.615 13.366 3.883-27.954-3.426-66.942-15.938 9.391 6.038-26.789-7.541-58.025-28.036-4.373 0.788-26.776-19.436-41.148-44.808-10.805-19.703-16.957-42.383-16.957-66.5 0-27.724 8.13-53.549 22.134-75.221 0.867-8.077 25.358-34.553 56.030-51.002-8.91 1.624 30.236-17.474 72.788-27.905 25.053-6.060 52.255-9.422 80.229-9.499 0.684-0.005 1.431-0.008 2.179-0.008 23.775 0 46.913 2.728 69.117 7.888-2.76-3.383 31.070 7.336 60.943 24.233 7.406 0.706 29.942 19.686 44.298 44.062 10.958 19.144 17.236 41.397 17.236 65.115 0 1.109-0.014 2.217-0.041 3.32zM465.281 667.621c-0.031 26.069-3.738 54.001-10.665 80.634 7.493-16.768-6.788 34.255-29.489 80.388 1.393 6.538-20.602 38.49-50.153 61.050-20.168 16.006-45.471 25.497-72.991 25.497-0.319 0-0.638-0.001-0.956-0.004-1.517 0.085-3.349 0.133-5.193 0.133-34.082 0-64.307-16.508-83.116-41.965-19.91-27.284-31.736-61.133-31.736-97.745 0-1.436 0.018-2.867 0.054-4.294 0.012-20.35 2.58-41.969 7.419-62.718-4.842 9.981 5.559-28.672 22.279-63.733-13.948 23.749 5.937-19.629 34.144-56.27-3.125-1.24 19.153-25.037 46.691-40.62 17.673-10.414 38.321-16.452 60.372-16.537 2.616-0.241 5.629-0.378 8.674-0.378 31.509 0 59.591 14.675 77.783 37.564 17.034 25.762 27.082 57.122 27.082 90.829 0 2.872-0.073 5.727-0.217 8.562zM384.675 959.663h268.781l-83.007-48.411h-83.047c15.643-4.634 48.304-36.619 67.179-76.414 15.528-31.341 24.403-67.144 24.449-105.015 0.020-1.126 0.033-2.437 0.033-3.751 0-27.798-5.196-54.381-14.669-78.833 3.102-1.055-12.173-31.252-34.060-55.331-13.411-14.42-26.95-27.408-40.489-39.609 25.401 24.316-8.252-3.016-33.93-36.747-9.216-11.981-14.572-26.541-14.639-42.349 0.071-11.454 3.862-22.556 10.275-31.683-8.592 9.367 6.541-12.43 26.126-29.169q16.497-14.338 36.176-29.687c13.106-10.233 26.213-21.648 39.359-33.849-35.701 34.569 4.498 1.148 35.374-39.711-0.194 4.414 16.865-22.070 26.67-51.849 6.822-20.449 10.54-42.469 10.54-65.359 0-0.597-0.003-1.192-0.008-1.788-0.677-69.136-34.013-132.011-85.64-172.724-64.686-51.084-146.799-81.722-236.069-81.722-7.979 0-15.901 0.245-23.758 0.728 0.938-0.053 0.773-0.053 0.609-0.053-25.812 0-51.088 2.291-75.638 6.681 3.077-3.003-37.44 5.937-74.87 20.946 12.063-8.319-29.707 9.463-65.033 35.487-3.489-1.914-29.443 22.785-46.041 53.308-12.059 21.756-18.905 46.685-18.905 73.213 0 0.718 0.005 1.435 0.015 2.151 0.269 27.474 8.692 57.617 23.238 83.903-0.545 8.885 24.657 43.164 57.969 66.737-2.167 3.378 40.209 29.463 87.737 43.561-26.598-5.974 32.061 12.173 93.486 22.044 19.963 3.865 57.199 7.789 95.169 8.759-18.97 20.188-35.201 53.803-38.401 91.14-0.041 0.66-0.041 0.748-0.041 0.835 0 5.055 0.43 10.009 1.254 14.828-0.658-1.66 0.775 5.284 3.186 11.75 1.070 3.083 2.723 7.412 4.77 12.922-3.828-10.171 1.039 0.839 4.111 12.577-12.526-1.163-27.559-2.324-42.86-2.343-1.28-0.026-2.766-0.040-4.255-0.040-59.158 0-112.961 22.925-153.010 60.376-40.179 36.071-65.417 88.346-65.417 146.516 0 1.584 0.019 3.163 0.056 4.738-0.006 0.060-0.006 0.408-0.006 0.756 0 58.972 22.159 112.769 58.605 153.518 21.71 33.19 77.307 71.768 141.984 86.427 36.274 8.092 75.919 12.536 116.602 12.536 0.014 0 0.029 0 0.043 0zM1023.663 802.229v-78.717h-157.434v-157.434h-78.717v157.434h-157.434v78.717h157.434v157.434h78.717v-157.434h157.434z" />
<glyph unicode="&#xe934;" glyph-name="ml" d="M636.343 246.126c19.723 20.076-1.807-5.655-28.191-25.208 17.54 11.313-8.592-9.117-38.431-22.883 11.483 3.763-16.871-9.426-47.438-17.010-18.231-4.314-37.182-6.579-56.663-6.579-0.049 0-0.098 0-0.147 0-0.669-0.008-1.469-0.012-2.27-0.012-25.27 0-49.506 4.427-71.975 12.546-1.914-2.77-32.268 12.147-56.602 33.706-3.273-1.216-24.636 23.374-37.383 52.586-8.933 21.995-13.889 46.336-13.889 71.835 0 27.683 5.841 54.002 16.358 77.792-1.491 5.352 17.683 34.494 43.656 55.59 1.479 5.265 32.224 25.246 67.085 35.715 26.553 8.261 55.503 12.816 85.516 12.816 1.367 0 2.732-0.009 4.095-0.028 1.252 0.019 2.975 0.029 4.7 0.029 22.097 0 43.819-1.605 65.057-4.705q25.964-4.648 46.444-9.585v21.211c-0.007 12.749-2.366 25.131-6.674 36.559 0.467 3.653-8.223 18.497-20.398 29.579-0.021 2.52-16.901 14.69-36.324 21.409-16.598 5.346-34.832 8.298-53.755 8.298-1.076 0-2.149-0.010-3.22-0.029-28.137-0.002-56.018-3.199-82.816-9.253 61.232 16.587-17.031-0.25-90.139-27.638l5.436 102.723c-26.102-11.555 3.903 4.072 36.368 14.089-23.346-6.716 9.799 4.714 44.61 11.482-0.949 0.616 24.302 5.699 50.356 7.98 15.696 1.963 32.293 3.030 49.138 3.030 0.928 0 1.856-0.003 2.783-0.010 2.018 0.050 4.564 0.078 7.117 0.078 34.539 0 67.885-5.106 99.325-14.604 4.040 2.72 41.396-14.009 71.921-38.818 4.868 0.486 29.099-26.018 43.606-57.883 9.953-22.262 15.503-47.032 15.503-73.099 0-0.64-0.003-1.28-0.010-1.919l0.001-224.451c-0.006-0.501-0.009-1.094-0.009-1.687 0-7.53 0.522-14.939 1.531-22.191-0.043-3.633 2.258-10.96 6.054-17.288 0.433-2.29 5.431-7.947 11.793-11.416 5.5-2.632 11.765-4.122 18.379-4.122 0.448 0 0.895 0.007 1.339 0.020 19.311 0.010 37.33 6.172 52.072 16.644 4.010-1.066 26.67 19.318 41.386 44.858 1.88-2.285 19.223 32.896 28.133 71.309 6.892 29.242 10.646 60.783 10.646 93.201 0 1.542-0.008 3.083-0.025 4.621 0.059 2.262 0.092 5.204 0.092 8.153 0 55.925-11.726 109.112-32.854 157.234 4.008 8.943-33.575 69.176-85.058 113.799-3.513 10.951-60.319 49.336-125.145 69.531-47.75 15.292-99.81 23.721-153.84 23.721-1.142 0-2.283-0.004-3.423-0.011-3.335 0.096-7.466 0.151-11.61 0.151-63.99 0-124.952-12.961-180.406-36.401-11.54 3.646-77.28-37.282-125.813-93.485-11.338-3.424-52.304-64.531-73.869-134.166-15.895-50.114-24.64-104.65-24.64-161.229 0-0.454 0.001-0.909 0.002-1.363-0.014-1.287-0.022-2.89-0.022-4.495 0-57.332 9.949-112.339 28.215-163.391-3.31-12.567 31.22-77.586 80.626-127.963 2.289-12.563 62.856-60.059 133.686-86.511 56.393-20.826 118.583-32.391 183.473-32.391 3.667 0 7.325 0.037 10.974 0.11 32.694-0.008 65.895 1.852 98.565 5.474-18.944-3.48 35.916 2.533 89.011 13.393 21.945 4.164 47.289 10.381 70.621 16.964-53.553-16.054 7.988-1.243 65.022 22.274l-3.911-93.588c56.813 21.826 0.688-3.357-59.143-19.515-28.738-7.548-55.399-13.4-83.815-18.885s-58.075-9.143-88.832-12.434-61.294-4.389-91.685-4.389c-1.124-0.007-2.454-0.010-3.784-0.010-49.906 0-98.566 5.332-145.443 15.456 9.677-7.215-62.515 12.584-127.658 44.545 32.254-22.419-43.465 16.376-105.644 70.359 17.296-23.332-40.509 30.425-80.952 96.026 0.25-10.053-34.328 52.836-53.348 122.161-12.791 46.040-19.703 95.144-19.703 145.861 0 1.946 0.010 3.889 0.030 5.83-0.029 1.816-0.045 4.309-0.045 6.807 0 73.856 13.426 144.576 37.969 209.853-6.176 10.771 38.895 95.733 103.106 162.051-0.835 11.866 73.542 71.637 160.732 105.929 67.399 25.189 141.629 39.132 219.116 39.132 72.436 0 142.026-12.185 206.832-34.617 7.42 6.729 89.48-33.749 155.029-92.321 8.701 3.619 67.408-62.501 102.767-141.366 24.744-58.664 38.497-123.748 38.497-192.044 0-49.15-7.123-96.636-20.393-141.483 3.652-5.911-19.4-57.577-53.637-99.806-0.096-7.931-36.436-41.847-80.365-62.124-30.99-13.995-65.555-21.811-101.946-21.811-1.053 0-2.104 0.007-3.153 0.020-1.209-0.036-2.821-0.055-4.437-0.055-15.908 0-31.376 1.886-46.191 5.446-0.68-1.435-18.932 4.841-34.759 14.655 0.719-2.518-13.684 8.217-24.038 22.142 5.579-9.749-7.566 8.196-16.093 28.556l-2.761 0.934zM616.265 415.086c-12.471 2.926-26.551 5.486-42.24 8.046-14.387 2.334-30.971 3.668-47.866 3.668-0.902 0-1.803-0.004-2.704-0.011-1.977 0.117-4.451 0.183-6.942 0.183-25.615 0-49.597-6.997-70.137-19.183-16.783-11.256-28.105-30.817-28.105-53.023 0-1.681 0.065-3.347 0.192-4.995-0.025-0.275-0.032-0.856-0.032-1.438 0-11.050 2.377-21.545 6.647-31.001-0.758-1.736 6.765-13.301 16.964-21.748 0.317-1.749 11.987-9.196 25.175-13.116 9.605-2.921 20.036-4.524 30.842-4.524 0.080 0 0.159 0 0.239 0 0.029 0 0.078 0 0.127 0 13.396 0 26.356 1.869 38.633 5.362-14.646-5.829 10.457 1.905 33.013 13.816-6.335-6.981 23.232 11.492 46.040 36.281l0.118 81.684z" />
<glyph unicode="&#xe935;" glyph-name="od" horiz-adv-x="622" d="M612.389 409.966c-14.629 29.623-55.698 53.76-110.043 11.337-53.976-35.759-120.246-57.052-191.488-57.052s-137.512 21.293-192.791 57.862c-53.079 41.613-93.966 17.476-108.741-12.147-25.6-51.2 3.365-76.069 69.010-117.76 39.612-25.385 108.058-48.517 181.461-53.681l-40.149-41.404c-58.514-57.783-114.944-113.737-154.149-152.503-10.838-10.729-17.548-25.609-17.548-42.057s6.711-31.328 17.543-42.052l7.1-6.953c10.786-10.844 25.717-17.554 42.216-17.554 0.021 0 0.043 0 0.064 0h0.216c0.024 0 0.053 0 0.082 0 16.503 0 31.44 6.711 42.228 17.552l154.151 152.505c58.514-57.783 114.944-113.737 154.149-152.503 10.853-10.85 25.845-17.561 42.405-17.561s31.551 6.711 42.405 17.561l7.058 6.948c10.856 10.721 17.579 25.604 17.579 42.057s-6.724 31.336-17.573 42.051l-195.809 193.835c52.881 0.741 122.807 20.841 183.871 54.917 63.388 40.535 92.499 65.403 66.753 116.603v0zM310.857 828.343c69.853-0.703 126.208-57.493 126.208-127.445 0-70.389-57.062-127.451-127.451-127.451-70.323 0-127.344 56.954-127.451 127.252 0.207 70.546 57.435 127.646 127.999 127.646 0.244 0 0.489-0.001 0.733-0.002h-0.038zM310.857 441.783c142.028 1.407 256.622 116.869 256.622 259.097 0 143.102-116.007 259.109-259.109 259.109s-259.109-116.007-259.109-259.109c0-0.060 0-0.12 0-0.18 0.766-143.157 117.002-258.92 260.275-258.92 0.464 0 0.928 0.001 1.392 0.004h-0.071z" />
<glyph unicode="&#xe97a;" glyph-name="spinner" d="M384 832c0 70.692 57.308 128 128 128s128-57.308 128-128c0-70.692-57.308-128-128-128s-128 57.308-128 128zM655.53 719.53c0 70.692 57.308 128 128 128s128-57.308 128-128c0-70.692-57.308-128-128-128s-128 57.308-128 128zM832 448c0 35.346 28.654 64 64 64s64-28.654 64-64c0-35.346-28.654-64-64-64s-64 28.654-64 64zM719.53 176.47c0 35.346 28.654 64 64 64s64-28.654 64-64c0-35.346-28.654-64-64-64s-64 28.654-64 64zM448.002 64c0 0 0 0 0 0 0 35.346 28.654 64 64 64s64-28.654 64-64c0 0 0 0 0 0 0-35.346-28.654-64-64-64s-64 28.654-64 64zM176.472 176.47c0 0 0 0 0 0 0 35.346 28.654 64 64 64s64-28.654 64-64c0 0 0 0 0 0 0-35.346-28.654-64-64-64s-64 28.654-64 64zM144.472 719.53c0 0 0 0 0 0 0 53.019 42.981 96 96 96s96-42.981 96-96c0 0 0 0 0 0 0-53.019-42.981-96-96-96s-96 42.981-96 96zM56 448c0 39.765 32.235 72 72 72s72-32.235 72-72c0-39.765-32.235-72-72-72s-72 32.235-72 72z" />
<glyph unicode="" glyph-name="spinner" d="M384 832c0 70.692 57.308 128 128 128s128-57.308 128-128c0-70.692-57.308-128-128-128s-128 57.308-128 128zM655.53 719.53c0 70.692 57.308 128 128 128s128-57.308 128-128c0-70.692-57.308-128-128-128s-128 57.308-128 128zM832 448c0 35.346 28.654 64 64 64s64-28.654 64-64c0-35.346-28.654-64-64-64s-64 28.654-64 64zM719.53 176.47c0 35.346 28.654 64 64 64s64-28.654 64-64c0-35.346-28.654-64-64-64s-64 28.654-64 64zM448.002 64c0 0 0 0 0 0 0 35.346 28.654 64 64 64s64-28.654 64-64c0 0 0 0 0 0 0-35.346-28.654-64-64-64s-64 28.654-64 64zM176.472 176.47c0 0 0 0 0 0 0 35.346 28.654 64 64 64s64-28.654 64-64c0 0 0 0 0 0 0-35.346-28.654-64-64-64s-64 28.654-64 64zM144.472 719.53c0 0 0 0 0 0 0 53.019 42.981 96 96 96s96-42.981 96-96c0 0 0 0 0 0 0-53.019-42.981-96-96-96s-96 42.981-96 96zM56 448c0 39.765 32.235 72 72 72s72-32.235 72-72c0-39.765-32.235-72-72-72s-72 32.235-72 72z" />
<glyph unicode="" glyph-name="od" horiz-adv-x="622" d="M612.389 409.966c-14.629 29.623-55.698 53.76-110.043 11.337-53.976-35.759-120.246-57.052-191.488-57.052s-137.512 21.293-192.791 57.862c-53.079 41.613-93.966 17.476-108.741-12.147-25.6-51.2 3.365-76.069 69.010-117.76 39.612-25.385 108.058-48.517 181.461-53.681l-40.149-41.404c-58.514-57.783-114.944-113.737-154.149-152.503-10.838-10.729-17.548-25.609-17.548-42.057s6.711-31.328 17.543-42.052l7.1-6.953c10.786-10.844 25.717-17.554 42.216-17.554 0.021 0 0.043 0 0.064 0h0.216c0.024 0 0.053 0 0.082 0 16.503 0 31.44 6.711 42.228 17.552l154.151 152.505c58.514-57.783 114.944-113.737 154.149-152.503 10.853-10.85 25.845-17.561 42.405-17.561s31.551 6.711 42.405 17.561l7.058 6.948c10.856 10.721 17.579 25.604 17.579 42.057s-6.724 31.336-17.573 42.051l-195.809 193.835c52.881 0.741 122.807 20.841 183.871 54.917 63.388 40.535 92.499 65.403 66.753 116.603v0zM310.857 828.343c69.853-0.703 126.208-57.493 126.208-127.445 0-70.389-57.062-127.451-127.451-127.451-70.323 0-127.344 56.954-127.451 127.252 0.207 70.546 57.435 127.646 127.999 127.646 0.244 0 0.489-0.001 0.733-0.002h-0.038zM310.857 441.783c142.028 1.407 256.622 116.869 256.622 259.097 0 143.102-116.007 259.109-259.109 259.109s-259.109-116.007-259.109-259.109c0-0.060 0-0.12 0-0.18 0.766-143.157 117.002-258.92 260.275-258.92 0.464 0 0.928 0.001 1.392 0.004h-0.071z" />
<glyph unicode="" glyph-name="od" horiz-adv-x="622" d="M612.389 409.966c-14.629 29.623-55.698 53.76-110.043 11.337-53.976-35.759-120.246-57.052-191.488-57.052s-137.512 21.293-192.791 57.862c-53.079 41.613-93.966 17.476-108.741-12.147-25.6-51.2 3.365-76.069 69.010-117.76 39.612-25.385 108.058-48.517 181.461-53.681l-40.149-41.404c-58.514-57.783-114.944-113.737-154.149-152.503-10.838-10.729-17.548-25.609-17.548-42.057s6.711-31.328 17.543-42.052l7.1-6.953c10.786-10.844 25.717-17.554 42.216-17.554 0.021 0 0.043 0 0.064 0h0.216c0.024 0 0.053 0 0.082 0 16.503 0 31.44 6.711 42.228 17.552l154.151 152.505c58.514-57.783 114.944-113.737 154.149-152.503 10.853-10.85 25.845-17.561 42.405-17.561s31.551 6.711 42.405 17.561l7.058 6.948c10.856 10.721 17.579 25.604 17.579 42.057s-6.724 31.336-17.573 42.051l-195.809 193.835c52.881 0.741 122.807 20.841 183.871 54.917 63.388 40.535 92.499 65.403 66.753 116.603v0zM310.857 828.343c69.853-0.703 126.208-57.493 126.208-127.445 0-70.389-57.062-127.451-127.451-127.451-70.323 0-127.344 56.954-127.451 127.252 0.207 70.546 57.435 127.646 127.999 127.646 0.244 0 0.489-0.001 0.733-0.002h-0.038zM310.857 441.783c142.028 1.407 256.622 116.869 256.622 259.097 0 143.102-116.007 259.109-259.109 259.109s-259.109-116.007-259.109-259.109c0-0.060 0-0.12 0-0.18 0.766-143.157 117.002-258.92 260.275-258.92 0.464 0 0.928 0.001 1.392 0.004h-0.071z" />
<glyph unicode="wallet" glyph-name="wallet" horiz-adv-x="1138" d="M569.458 361.813c-0.181 2.085-0.284 4.511-0.284 6.962 0 47.128 38.205 85.333 85.333 85.333s85.333-38.205 85.333-85.333c0-2.45-0.103-4.877-0.306-7.275-0.378-45.575-37.218-82.736-82.95-83.654-46.909 0.408-84.982 37.4-87.119 83.773zM608.142 504.832c-49.493 0-95.573-63.602-95.573-142.222s46.080-142.222 95.573-142.222h490.382c22.038 1.765 39.254 20.085 39.254 42.425 0 0.085 0 0.17-0.001 0.255v197.221c0.001 0.133 0.002 0.291 0.002 0.448 0 22.669-17.065 41.353-39.050 43.906l-490.588 0.019zM170.667 789.276c-30.945 1.067-55.797 25.904-56.886 56.787 2.937 29.929 26.684 53.805 56.609 56.967l739.833 0.024c-20.011 34.774-56.962 57.811-99.293 57.811-5.106 0-10.134-0.335-15.063-0.985l-682.088 0.062c-4.657 0.772-10.023 1.214-15.493 1.214-54.952 0-99.499-44.547-99.499-99.499 0-5.469 0.441-10.836 1.29-16.065l-0.077-629.699c-0.016-0.575-0.025-1.251-0.025-1.93 0-3.331 0.216-6.611 0.634-9.827-0.609-18.28-0.609-25.903-0.609-40.637 21.535-108.334 110.985-200.287 225.508-227.151l741.603-0.405c4.657-0.772 10.023-1.214 15.493-1.214 54.952 0 99.499 44.547 99.499 99.499 0 5.469-0.441 10.836-1.29 16.065l0.077 113.205h-455.111c-127.431 1.764-170.098 79.644-170.098 186.709s42.667 211.57 170.098 211.57h455.111v113.778c0.772 4.657 1.214 10.023 1.214 15.493 0 54.952-44.547 99.499-99.499 99.499-5.469 0-10.836-0.441-16.065-1.29l-795.872 0.077z" />
<glyph unicode="vk" glyph-name="vk" horiz-adv-x="1828" d="M1534.491 246.339c-136.814 121.075-118.421 101.152 46.589 311.635 100.537 127.718 140.947 205.371 128.433 239.088-12.157 31.672-86.134 23.498-86.134 23.498l-245.932-1.53c-1.734 0.177-3.745 0.276-5.781 0.276-9.452 0-18.393-2.178-26.35-6.058-3.163-0.367-14.286-11.142-21.078-24.497 60.611 136.712-1.999-36.231-94.197-189.345-106.087-171.714-149.872-180.396-168.007-169.669-41.331 25.544-31.007 103.197-31.007 158.369 0 171.654 27.484 256.966-53.387 275.359-25.921 12.945-63.141 22.67-102.494 24l-80.452 0.013c-46.881-0.218-94.832-12.279-137.389-33.534-26.449-12.444-48.009-48.718-34.467-50.248 24.979-1.562 52.714-16.128 72.127-38.187 15.659-29.494 24.785-64.318 24.785-101.278 0-2.337-0.034-4.665-0.108-6.982s14.362-202.475-34.065-227.51c-33.209-17.37-78.469 17.37-175.895 178.297 101.047-167.674-8.393-10.886-84.262 163.86-3.104 12.325-11.927 25.909-23.913 35.79-3.299 3.554-19.486 11.072-37.163 14.303l-234.39-0.409c-0.629 0.020-1.376 0.030-2.119 0.030-17.165 0-33.085-5.362-46.165-14.505-2.805-5.58-4.607-12.413-4.607-19.666 0-6.52 1.458-12.695 4.058-18.232s182.986-407.417 389.737-612.788c100.922-105.252 242.695-170.664 399.737-170.664 2.090 0 4.178 0.013 6.262 0.032l97.414-0.003c1.739-0.167 3.756-0.267 5.799-0.267 14.594 0 28.048 4.902 38.8 13.15 7.97 8.537 13.135 20.453 13.281 33.573s-1.838 125.706 58.803 144.098 137.272-120.053 218.958-173.699c26.555-20.056 60.124-32.124 96.505-32.124 4.223 0 8.411 0.161 12.556 0.483l218.052 3.030s113.923 7.151 59.618 92.47c-3.783 7.666-31.114 63.351-162.15 179.828z" />
<glyph unicode="tw" glyph-name="tw" horiz-adv-x="1303" d="M1303.273 838.982c-14.921-10.829-80.938-32.42-151.029-40.712 39.223 16.877 90.601 72.39 114.444 140.806-5.024-8.296-82.025-43.547-165.776-59.957-52.746 49.711-121.329 80.886-197.193 80.886-0.521 0-1.042-0.001-1.562-0.004-1.193 0.023-2.694 0.035-4.199 0.035-143.644 0-260.405-115.106-263.075-258.112-0.004-0.352-0.004-0.473-0.004-0.594 0-20.854 2.529-41.118 7.296-60.501-212.065 6.923-413.754 110.261-550.569 270.627-23.63-35.862-37.102-80.607-37.102-128.499 0-0.103 0-0.207 0-0.31 0.206-89.892 47.152-169.109 117.901-214.411-39.447-0.265-83.16 11.614-121.474 32.231l1.479-3.985c1.473-126.036 92.713-230.71 212.875-252.96-19.485-6.158-43.705-9.556-68.719-9.556-0.034 0-0.069 0-0.103 0-16.586 0.008-34.631 1.703-52.137 4.935 38.591-104.657 136.342-178.58 251.482-179.479-90.662-69.147-205.642-110.781-330.346-110.781-0.563 0-1.125 0.001-1.687 0.003-1.061-0.010-2.417-0.016-3.775-0.016-21.133 0-41.949 1.359-62.365 3.993 118.389-73.288 259.447-116.62 410.626-116.62 0.586 0 1.172 0.001 1.758 0.002 5.379-0.145 11.819-0.227 18.279-0.227 407.641 0 738.547 328.544 742.367 735.283q0.003 17.119-0.742 33.875c-8.442-17.975 73.789 48.274 132.212 132.317z" />
<glyph unicode="textcopy" glyph-name="textcopy" horiz-adv-x="1280" d="M179.2 768h716.8c28.281 0 51.2-22.919 51.2-51.2v-102.4c0-28.281-22.919-51.2-51.2-51.2h-716.8c-28.281 0-51.2 22.919-51.2 51.2v102.4c0 28.281 22.919 51.2 51.2 51.2zM204.8 460.8h870.4c42.419 0 76.8-34.38 76.8-76.8v-51.2c0-42.419-34.38-76.8-76.8-76.8h-870.4c-42.419 0-76.8 34.38-76.8 76.8v51.2c0 42.419 34.38 76.8 76.8 76.8zM204.8 153.6h665.6c42.419 0 76.8-34.38 76.8-76.8v-51.2c0-42.419-34.38-76.8-76.8-76.8h-665.6c-42.419 0-76.8 34.38-76.8 76.8v51.2c0 42.419 34.38 76.8 76.8 76.8z" />
<glyph unicode="tag" glyph-name="tag" horiz-adv-x="1025" d="M982.4 841.6c-2.696 22.864-20.318 41.843-43.161 46.657l-348.519 70.463c-3.22 0.669-6.921 1.052-10.711 1.052-15.343 0-29.22-6.278-39.202-16.406l-523.526-523.527c-10.033-9.972-16.242-23.781-16.242-39.040s6.209-29.068 16.239-39.037l391.043-390.403c9.972-10.033 23.781-16.242 39.040-16.242s29.068 6.209 39.037 16.239l523.523 523.523c10.144 9.99 16.429 23.873 16.429 39.225 0 2.417-0.156 4.797-0.458 7.131zM683.52 507.52c0 0 0 0 0 0-55.847 0-101.12 45.273-101.12 101.12s45.273 101.12 101.12 101.12c55.847 0 101.12-45.273 101.12-101.12 0-0.001 0-0.001 0-0.002 0-55.847-45.273-101.12-101.12-101.12-0.225 0-0.45 0.001-0.675 0.002z" />
<glyph unicode="star_empty" glyph-name="star-empty" d="M628.16 584.896c222.72-39.744 227.84-52.48 72.32-207.936 26.24-208.64 14.72-218.752-188.8-128.512-202.88-90.24-214.4-85.184-188.16 128.512-155.52 155.456-150.4 168.192 72.32 207.936 109.44 187.008 122.88 187.008 232.32 0zM713.92 707.008c-190.080 337.856-214.4 337.856-403.84 0-385.92-71.744-394.24-94.848-124.16-375.744-46.72-386.048-26.24-395.264 325.76-232.192 352.64-163.072 373.12-144.832 326.4 232.192 270.080 280.896 261.76 304-124.16 375.744z" />
<glyph unicode="star" glyph-name="star" d="M713.6 706.432c385.28-71.744 393.6-94.72 124.16-375.424 46.72-376.768 26.24-395.008-325.76-232.064-351.36-162.944-371.84-153.6-325.76 232.064-269.44 280.704-260.48 303.68 124.8 375.424 188.8 337.6 213.12 337.6 402.56 0z" />
<glyph unicode="spinner" glyph-name="spinner" d="M384 832c0 70.692 57.308 128 128 128s128-57.308 128-128c0-70.692-57.308-128-128-128s-128 57.308-128 128zM655.53 719.53c0 70.692 57.308 128 128 128s128-57.308 128-128c0-70.692-57.308-128-128-128s-128 57.308-128 128zM832 448c0 35.346 28.654 64 64 64s64-28.654 64-64c0-35.346-28.654-64-64-64s-64 28.654-64 64zM719.53 176.47c0 35.346 28.654 64 64 64s64-28.654 64-64c0-35.346-28.654-64-64-64s-64 28.654-64 64zM448.002 64c0 0 0 0 0 0 0 35.346 28.654 64 64 64s64-28.654 64-64c0 0 0 0 0 0 0-35.346-28.654-64-64-64s-64 28.654-64 64zM176.472 176.47c0 0 0 0 0 0 0 35.346 28.654 64 64 64s64-28.654 64-64c0 0 0 0 0 0 0-35.346-28.654-64-64-64s-64 28.654-64 64zM144.472 719.53c0 0 0 0 0 0 0 53.019 42.981 96 96 96s96-42.981 96-96c0 0 0 0 0 0 0-53.019-42.981-96-96-96s-96 42.981-96 96zM56 448c0 39.765 32.235 72 72 72s72-32.235 72-72c0-39.765-32.235-72-72-72s-72 32.235-72 72z" />
<glyph unicode="sms" glyph-name="sms" d="M862.562-49.29h-150.244c-72.615-68.91-145.23-145.23-186.295-190.559-67.107-32.15-64.102 34.605-64.102 34.605v155.954h-300.487c-79.58 6.601-143.209 69.982-150.199 149.622l-0.041 501.428c6.601 79.58 69.982 143.209 149.622 150.2l701.748 0.041c79.689-6.43 143.391-69.91 150.2-149.63l0.037-501.41c-6.43-79.689-69.91-143.391-149.63-150.2zM261.605 451.511c-55.311 0-100.167-44.842-100.167-100.167s44.842-100.167 100.167-100.167c55.311 0 100.167 44.842 100.167 100.167s-44.842 100.167-100.167 100.167zM512 451.511c-55.311 0-100.167-44.842-100.167-100.167s44.842-100.167 100.167-100.167c55.311 0 100.167 44.842 100.167 100.167s-44.842 100.167-100.167 100.167zM762.395 451.511c-55.311 0-100.167-44.842-100.167-100.167s44.842-100.167 100.167-100.167c55.311 0 100.167 44.842 100.167 100.167s-44.842 100.167-100.167 100.167z" />
<glyph unicode="search" glyph-name="search" horiz-adv-x="1022" d="M163.328 494.080c1.966 162.502 134.157 293.478 296.94 293.478 164.006 0 296.96-132.954 296.96-296.96 0-163.999-132.942-296.948-296.938-296.96-163.741 3.563-295.342 136.369-296.96 300.286zM0 494.080c-0.005-0.763-0.007-1.666-0.007-2.57 0-254.829 205.71-461.612 460.13-463.349 0.344-0.001 0.557-0.001 0.769-0.001 95.807 0 184.683 29.681 257.932 80.349l161.817-166.416s43.008-26.010 102.912 34.662 34.304 104.090 34.304 104.090l-165.888 168.090c43.079 69.545 68.609 153.89 68.609 244.199 0 0.369 0 0.738-0.001 1.106 0.032 1.969 0.051 4.361 0.051 6.757 0 254.238-206.101 460.339-460.339 460.339s-460.339-206.101-460.339-460.339c0-2.432 0.019-4.859 0.056-7.282z" />
<glyph unicode="rating" glyph-name="rating" horiz-adv-x="1056" d="M972.534 74.934h-69.467v764.088c0 38.365-31.103 69.467-69.467 69.467h-69.467c-38.365 0-69.467-31.103-69.467-69.467v-764.088h-69.467v694.626c0 38.365-31.103 69.467-69.467 69.467h-69.467c-38.365 0-69.467-31.103-69.467-69.467v-694.626h-69.467v486.239c0 38.365-31.103 69.467-69.467 69.467h-69.467c-38.365 0-69.467-31.103-69.467-69.467v-486.239h-69.467c-38.365 0-69.467-31.103-69.467-69.467s31.103-69.467 69.467-69.467h903.013c38.365 0 69.467 31.103 69.467 69.467s-31.103 69.467-69.467 69.467z" />
<glyph unicode="pin" glyph-name="pin" horiz-adv-x="717" d="M254.971 19.184l103.43-307.214 103.43 307.214h-206.858zM-0.016 70.384h716.83c0 64.259-61.954 121.093-153.61 153.61v307.214c83.225 30.439 145.885 109.428 153.552 203.959l-716.78 0.85c5.67-91.384 67.088-171.355 151.965-204.264l1.636-307.769c-91.651-32.513-153.61-89.35-153.61-153.61z" />
<glyph unicode="phone_out" glyph-name="phone-out" horiz-adv-x="1023" d="M646.429 518.532c6.884-5.993 15.947-9.644 25.86-9.644s18.97 3.651 25.906 9.682l112.786 97.746 41.843-36.2s14.104-10.34 28.209 9.871c2.349 17.866 0 155.148 0 155.148 65.742-78.171 15.843-9.017-46.456 46.525-15.605 6.134-170.28 0.491-170.28 0.491s-41.843 2.818-36.67-18.808l47.016-39.964-111.423-96.849c-6.702-5.208-10.974-13.27-10.974-22.334s4.272-17.121 10.91-22.282zM944.498 242.089c-14.859 28.629-69.675 72.569-134.814 93.472-81.922 28.763-132.697 3.373-181.591-105.228-96.849 14.104-326.276 241.183-335.21 342.731 0 0 176.303-5.643 133.991 180.532-11.357 58.243-62.952 124.115-132.51 160.093s-142.522 76.857-233.728-106.494c-83.686-168.31 55.948-464.971 182.415-591.908s414.193-309.823 637.981-183.354c165.018 94.497 63.469 210.154 63.469 210.154z" />
<glyph unicode="phone_delete" glyph-name="phone-delete" d="M290.469 566.575s184.2-5.895 139.501 188.523c-11.786 60.933-65.497 129.644-137.964 167.169s-148.897 80.249-244.19-111.22c-87.925-176.046 58.453-486.288 190.586-618.569s432.748-323.553 666.56-191.568c171.919 97.209 65.821 217.946 65.821 217.946-15.306 30.365-72.572 77.105-140.857 99.564-85.587 30.066-138.636 3.54-189.23-109.878-101.188 14.835-340.892 251.985-350.227 358.038zM866.646 780.69c-7.535 7.56-17.958 12.238-29.472 12.238s-21.937-4.678-29.471-12.237l-75.645-85.619-76.135 85.618c-7.535 7.56-17.958 12.238-29.472 12.238s-21.937-4.678-29.471-12.237l-25.051-25.298c-7.501-7.56-12.139-17.974-12.139-29.472s4.637-21.912 12.141-29.475l82.027-75.84-82.030-75.843c-7.489-7.566-12.118-17.978-12.118-29.472s4.628-21.906 12.121-29.476l25.046-25.245c7.535-7.56 17.958-12.238 29.472-12.238s21.937 4.678 29.471 12.237l76.136 85.619 75.644-85.618c7.535-7.56 17.958-12.238 29.472-12.238s21.937 4.678 29.471 12.237l25.051 25.25c7.489 7.566 12.118 17.978 12.118 29.472s-4.628 21.906-12.121 29.476l-85.466 75.839 85.47 75.843c7.501 7.56 12.139 17.974 12.139 29.472s-4.637 21.912-12.141 29.475z" />
<glyph unicode="phone" glyph-name="phone" horiz-adv-x="992" d="M277.361 523.97s176.856-5.884 134.187 180.388c-11.386 57.93-63.068 123.86-132.705 159.972s-142.732 76.915-233.956-106.414c-84.16-168.616 55.913-465.239 182.446-592.068s414.919-309.866 639.152-183.329c164.79 92.989 63.267 208.637 63.267 208.637-14.415 28.761-69.339 73.657-134.829 95.355-82.341 28.825-133.249 3.221-181.805-105.067-97.107 13.83-326.932 241.006-335.761 342.528z" />
<glyph unicode="person" glyph-name="person" horiz-adv-x="896" d="M6.958-29.648c0-8.884 0.63-26.399 0.63-26.399h880.823c0.63 8.758 0.63 17.516 0.63 26.399 0 233.122-158.145 415.146-437.891 415.146-298.018 0-444.192-182.087-444.192-415.146zM195.976 706.576c0-139.189 112.835-252.024 252.024-252.024s252.024 112.835 252.024 252.024c-0.072 139.135-112.879 251.898-252.024 251.898-139.189 0-252.024-112.835-252.024-252.024 0-0.044 0-0.089 0-0.133z" />
<glyph unicode="people" glyph-name="people" d="M312.070 63.599h-312.070c14.738 179.424 144.18 320.401 303.74 320.401 81.967-0.658 157.078-37.575 208.641-95.821-88.564-28.724-170.658-114.61-199.777-222.264zM319.76 832.561c106.172 0 192.24-86.069 192.24-192.24s-86.069-192.24-192.24-192.24c-106.172 0-192.24 86.069-192.24 192.24s86.069 192.24 192.24 192.24zM384.481-64.561c0 176.599 143.161 319.76 319.76 319.76s319.76-143.161 319.76-319.76h-639.519zM704.24 704.401c106.172 0 192.24-86.069 192.24-192.24s-86.069-192.24-192.24-192.24c-106.172 0-192.24 86.069-192.24 192.24s86.069 192.24 192.24 192.24z" />
<glyph unicode="pencil" glyph-name="pencil" d="M260.132 322.921v-125.695h125.695l502.783 502.783c0 0.067 0 0.146 0 0.223 0 30.181-10.675 57.87-28.456 79.496-19.865 22.076-55.948 41.39-96.5 45.908zM8.741 448.616v-404.992c-0.545-3.655-0.856-7.873-0.856-12.164 0-47.969 38.887-86.856 86.856-86.856 5.142 0 10.18 0.447 15.077 1.304l401.706-0.076 502.783 502.783v62.848c1.806 16.795-24.207 77.069-63.394 126.408l-502.236-503.494v-125.695h-251.392l-125.695 125.695v251.392h125.695l502.783 502.783c-12.366 16.883-64.637 48.327-123.642 62.434l-64.902 0.414z" />
<glyph unicode="paper_text" glyph-name="paper-text" horiz-adv-x="960" d="M217.92 639.68h268.48c0.342 0.017 0.742 0.026 1.144 0.026 13.312 0 24.174-10.488 24.774-23.652l0.002-47.734c-0.573-13.383-11.562-24.016-25.034-24.016-0.311 0-0.622 0.006-0.93 0.017l-268.435-0.001c-0.278-0.011-0.603-0.017-0.931-0.017-13.53 0-24.584 10.603-25.306 23.953l-0.003 47.744c0.752 13.249 11.68 23.708 25.050 23.708 0.419 0 0.835-0.010 1.248-0.031zM217.28 479.68h525.44c0.196 0.006 0.427 0.009 0.658 0.009 13.45 0 24.416-10.639 24.94-23.961l0.001-47.728c-0.555-13.203-11.394-23.697-24.683-23.697-0.322 0-0.643 0.006-0.963 0.018l-525.394-0.001c-0.273-0.011-0.594-0.017-0.917-0.017-13.289 0-24.128 10.494-24.682 23.647l-0.002 47.73c0.526 13.37 11.491 24.009 24.942 24.009 0.231 0 0.462-0.003 0.692-0.009zM217.28 320.32h525.44c0.196 0.006 0.427 0.009 0.658 0.009 13.45 0 24.416-10.639 24.94-23.961l0.001-48.368c-0.526-13.37-11.491-24.009-24.942-24.009-0.231 0-0.462 0.003-0.692 0.009l-525.406-0.001c-0.196-0.006-0.427-0.009-0.658-0.009-13.45 0-24.416 10.639-24.94 23.961l-0.001 48.368c0.526 13.37 11.491 24.009 24.942 24.009 0.231 0 0.462-0.003 0.692-0.009zM160 960c-86.937-3.198-156.721-72.935-159.991-159.695l-0.009-704.305c3.198-86.937 72.935-156.721 159.695-159.991l640.305-0.009c86.937 3.198 156.721 72.935 159.991 159.695l0.009 512.305h-128c-157.44 0-224 53.76-224 224v128h-448zM672 960v-128c3.198-86.937 72.935-156.721 159.695-159.991l128.305-0.009z" />
<glyph unicode="od" glyph-name="od" horiz-adv-x="622" d="M612.389 409.966c-14.629 29.623-55.698 53.76-110.043 11.337-53.976-35.759-120.246-57.052-191.488-57.052s-137.512 21.293-192.791 57.862c-53.079 41.613-93.966 17.476-108.741-12.147-25.6-51.2 3.365-76.069 69.010-117.76 39.612-25.385 108.058-48.517 181.461-53.681l-40.149-41.404c-58.514-57.783-114.944-113.737-154.149-152.503-10.838-10.729-17.548-25.609-17.548-42.057s6.711-31.328 17.543-42.052l7.1-6.953c10.786-10.844 25.717-17.554 42.216-17.554 0.021 0 0.043 0 0.064 0h0.216c0.024 0 0.053 0 0.082 0 16.503 0 31.44 6.711 42.228 17.552l154.151 152.505c58.514-57.783 114.944-113.737 154.149-152.503 10.853-10.85 25.845-17.561 42.405-17.561s31.551 6.711 42.405 17.561l7.058 6.948c10.856 10.721 17.579 25.604 17.579 42.057s-6.724 31.336-17.573 42.051l-195.809 193.835c52.881 0.741 122.807 20.841 183.871 54.917 63.388 40.535 92.499 65.403 66.753 116.603v0zM310.857 828.343c69.853-0.703 126.208-57.493 126.208-127.445 0-70.389-57.062-127.451-127.451-127.451-70.323 0-127.344 56.954-127.451 127.252 0.207 70.546 57.435 127.646 127.999 127.646 0.244 0 0.489-0.001 0.733-0.002h-0.038zM310.857 441.783c142.028 1.407 256.622 116.869 256.622 259.097 0 143.102-116.007 259.109-259.109 259.109s-259.109-116.007-259.109-259.109c0-0.060 0-0.12 0-0.18 0.766-143.157 117.002-258.92 260.275-258.92 0.464 0 0.928 0.001 1.392 0.004h-0.071z" />
<glyph unicode="nav_arrow_up_small" glyph-name="nav-arrow-up-small" d="M149.768 810.056c-92.544-92.719-149.767-220.705-149.767-362.056s57.223-269.337 149.759-362.048c92.653-92.648 220.649-149.952 362.030-149.952 282.77 0 512 229.23 512 512s-229.23 512-512 512c-141.38 0-269.376-57.304-362.029-149.952zM149.76 810.048c92.653 92.648 220.649 149.952 362.029 149.952 282.77 0 512-229.23 512-512s-229.23-512-512-512c-141.38 0-269.376 57.304-362.030 149.952-92.536 92.711-149.759 220.697-149.759 362.048s57.223 269.337 149.767 362.056zM463.385 618.65c11.912 12.488 28.715 20.269 47.335 20.269s35.424-7.781 47.36-20.294l189.415-196.262c12.211-12.758 19.713-30.060 19.713-49.114s-7.502-36.356-19.688-49.088l-47.385-49.114c-11.912-12.488-28.715-20.269-47.335-20.269s-35.424 7.781-47.36 20.294l-94.72 98.24-94.105-98.266c-11.912-12.488-28.715-20.269-47.335-20.269s-35.424 7.781-47.36 20.294l-47.335 49.062c-12.211 12.758-19.713 30.060-19.713 49.114s7.502 36.356 19.688 49.088l142.080 147.2 46.72 49.088z" />
<glyph unicode="nav_arrow_up" glyph-name="nav-arrow-up" d="M198.173 268.337c15.942-14.871 37.405-23.995 61.002-23.995s45.065 9.128 61.055 24.043l191.766 198.754 191.144-198.742c16.051-14.905 37.633-24.042 61.343-24.042s45.294 9.143 61.405 24.085c15.592 14.447 25.354 35.1 25.354 58.038s-9.764 43.593-25.364 58.040l-245.418 235.858c-2.034 2.034-2.715 4.408-4.744 6.303-9.159 10.146-27.294 19.995-47.671 22.788-6.311 1.417-13.035 2.189-19.944 2.189-23.66 0-45.18-9.141-61.227-24.083 5.925 7.238-1.704-0.747-7.221-10.125l-241.48-233.3c-15.65-14.429-25.418-35.037-25.418-57.919s9.768-43.488 25.364-57.868z" />
<glyph unicode="nav_arrow_right" glyph-name="nav-arrow-right" d="M342.673 152.937c-14.016 15.034-22.622 35.272-22.622 57.51s8.606 42.49 22.67 57.564l187.196 180.037-187.244 179.9c-13.923 15.075-22.46 35.295-22.46 57.51s8.543 42.449 22.516 57.574c13.724 14.63 33.247 23.776 54.91 23.776s41.184-9.144 54.92-23.796l222.433-230.868c1.28-1.658 3.838-2.296 5.756-4.158 9.979-9.241 18.868-26.137 21.056-45.077 1.374-5.956 2.146-12.378 2.146-18.984 0-22.053-8.585-42.091-22.606-56.958 5 4.017-1.551-2.251-9.278-6.713l-220.101-227.27c-13.681-14.654-33.106-23.795-54.672-23.795-21.535 0-40.936 9.105-54.568 23.686z" />
<glyph unicode="nav_arrow_left" glyph-name="nav-arrow-left" d="M681.686 151.702c13.936 15.107 22.472 35.358 22.472 57.609s-8.544 42.514-22.53 57.671l-187.513 180.912 187.558 180.712c13.986 15.157 22.567 35.496 22.567 57.84s-8.583 42.681-22.624 57.89c-13.715 14.707-33.28 23.911-55.003 23.911s-41.281-9.202-55.007-23.916l-222.813-231.972c-1.28-1.6-3.84-2.301-5.76-4.102-10.003-9.305-18.91-26.305-21.091-45.339-1.402-6.020-2.181-12.505-2.181-19.17 0-22.107 8.622-42.197 22.672-57.089-5.039 4.093 1.537-2.261 9.303-6.79l220.475-228.353c13.67-14.636 33.091-23.762 54.647-23.762 21.639 0 41.133 9.202 54.775 23.913z" />
<glyph unicode="nav_arrow_down_small" glyph-name="nav-arrow-down-small" d="M149.768 85.944c-92.544 92.719-149.767 220.705-149.767 362.056s57.223 269.337 149.759 362.048c92.653 92.648 220.649 149.952 362.030 149.952 282.77 0 512-229.23 512-512s-229.23-512-512-512c-141.38 0-269.376 57.304-362.029 149.952zM149.76 85.952c92.653-92.648 220.649-149.952 362.029-149.952 282.77 0 512 229.23 512 512s-229.23 512-512 512c-141.38 0-269.376-57.304-362.030-149.952-92.536-92.711-149.759-220.697-149.759-362.048s57.223-269.337 149.767-362.056zM463.385 277.35c11.912-12.488 28.715-20.269 47.335-20.269s35.424 7.781 47.36 20.294l189.416 196.262c12.207 12.747 19.706 30.039 19.706 49.082s-7.5 36.334-19.682 49.056l-47.386 49.116c-11.894 12.519-28.702 20.324-47.334 20.324s-35.44-7.805-47.36-20.352l-94.72-98.176-94.106 98.204c-11.894 12.519-28.702 20.324-47.334 20.324s-35.44-7.805-47.36-20.352l-47.336-49.062c-12.207-12.747-19.706-30.039-19.706-49.082s7.5-36.334 19.682-49.056l142.080-147.2 46.72-49.088z" />
<glyph unicode="nav_arrow_down" glyph-name="nav-arrow-down" d="M199.202 627.632c15.945 14.871 37.405 23.995 61.002 23.995s45.060-9.125 61.056-24.043l190.408-198.752 191.143 198.73c15.919 14.928 37.389 24.094 61.002 24.094s45.085-9.171 61.048-24.139c15.599-14.448 25.361-35.109 25.361-58.040s-9.759-43.591-25.361-58.039l-244.741-235.858c-2.034-1.968-2.71-4.408-4.746-6.301-9.159-10.142-27.294-19.991-47.672-22.791-6.222-1.381-12.839-2.141-19.635-2.141-23.529 0-44.932 9.124-60.852 24.030 5.919-7.24-1.71 0.751-7.226 10.13l-240.797 233.29c-15.65 14.429-25.418 35.031-25.418 57.918s9.768 43.488 25.363 57.866z" />
<glyph unicode="ml" glyph-name="ml" d="M636.343 246.126c19.723 20.076-1.807-5.655-28.191-25.208 17.54 11.313-8.592-9.117-38.431-22.883 11.483 3.763-16.871-9.426-47.438-17.010-18.231-4.314-37.182-6.579-56.663-6.579-0.049 0-0.098 0-0.147 0-0.669-0.008-1.469-0.012-2.27-0.012-25.27 0-49.506 4.427-71.975 12.546-1.914-2.77-32.268 12.147-56.602 33.706-3.273-1.216-24.636 23.374-37.383 52.586-8.933 21.995-13.889 46.336-13.889 71.835 0 27.683 5.841 54.002 16.358 77.792-1.491 5.352 17.683 34.494 43.656 55.59 1.479 5.265 32.224 25.246 67.085 35.715 26.553 8.261 55.503 12.816 85.516 12.816 1.367 0 2.732-0.009 4.095-0.028 1.252 0.019 2.975 0.029 4.7 0.029 22.097 0 43.819-1.605 65.057-4.705q25.964-4.648 46.444-9.585v21.211c-0.007 12.749-2.366 25.131-6.674 36.559 0.467 3.653-8.223 18.497-20.398 29.579-0.021 2.52-16.901 14.69-36.324 21.409-16.598 5.346-34.832 8.298-53.755 8.298-1.076 0-2.149-0.010-3.22-0.029-28.137-0.002-56.018-3.199-82.816-9.253 61.232 16.587-17.031-0.25-90.139-27.638l5.436 102.723c-26.102-11.555 3.903 4.072 36.368 14.089-23.346-6.716 9.799 4.714 44.61 11.482-0.949 0.616 24.302 5.699 50.356 7.98 15.696 1.963 32.293 3.030 49.138 3.030 0.928 0 1.856-0.003 2.783-0.010 2.018 0.050 4.564 0.078 7.117 0.078 34.539 0 67.885-5.106 99.325-14.604 4.040 2.72 41.396-14.009 71.921-38.818 4.868 0.486 29.099-26.018 43.606-57.883 9.953-22.262 15.503-47.032 15.503-73.099 0-0.64-0.003-1.28-0.010-1.919l0.001-224.451c-0.006-0.501-0.009-1.094-0.009-1.687 0-7.53 0.522-14.939 1.531-22.191-0.043-3.633 2.258-10.96 6.054-17.288 0.433-2.29 5.431-7.947 11.793-11.416 5.5-2.632 11.765-4.122 18.379-4.122 0.448 0 0.895 0.007 1.339 0.020 19.311 0.010 37.33 6.172 52.072 16.644 4.010-1.066 26.67 19.318 41.386 44.858 1.88-2.285 19.223 32.896 28.133 71.309 6.892 29.242 10.646 60.783 10.646 93.201 0 1.542-0.008 3.083-0.025 4.621 0.059 2.262 0.092 5.204 0.092 8.153 0 55.925-11.726 109.112-32.854 157.234 4.008 8.943-33.575 69.176-85.058 113.799-3.513 10.951-60.319 49.336-125.145 69.531-47.75 15.292-99.81 23.721-153.84 23.721-1.142 0-2.283-0.004-3.423-0.011-3.335 0.096-7.466 0.151-11.61 0.151-63.99 0-124.952-12.961-180.406-36.401-11.54 3.646-77.28-37.282-125.813-93.485-11.338-3.424-52.304-64.531-73.869-134.166-15.895-50.114-24.64-104.65-24.64-161.229 0-0.454 0.001-0.909 0.002-1.363-0.014-1.287-0.022-2.89-0.022-4.495 0-57.332 9.949-112.339 28.215-163.391-3.31-12.567 31.22-77.586 80.626-127.963 2.289-12.563 62.856-60.059 133.686-86.511 56.393-20.826 118.583-32.391 183.473-32.391 3.667 0 7.325 0.037 10.974 0.11 32.694-0.008 65.895 1.852 98.565 5.474-18.944-3.48 35.916 2.533 89.011 13.393 21.945 4.164 47.289 10.381 70.621 16.964-53.553-16.054 7.988-1.243 65.022 22.274l-3.911-93.588c56.813 21.826 0.688-3.357-59.143-19.515-28.738-7.548-55.399-13.4-83.815-18.885s-58.075-9.143-88.832-12.434-61.294-4.389-91.685-4.389c-1.124-0.007-2.454-0.010-3.784-0.010-49.906 0-98.566 5.332-145.443 15.456 9.677-7.215-62.515 12.584-127.658 44.545 32.254-22.419-43.465 16.376-105.644 70.359 17.296-23.332-40.509 30.425-80.952 96.026 0.25-10.053-34.328 52.836-53.348 122.161-12.791 46.040-19.703 95.144-19.703 145.861 0 1.946 0.010 3.889 0.030 5.83-0.029 1.816-0.045 4.309-0.045 6.807 0 73.856 13.426 144.576 37.969 209.853-6.176 10.771 38.895 95.733 103.106 162.051-0.835 11.866 73.542 71.637 160.732 105.929 67.399 25.189 141.629 39.132 219.116 39.132 72.436 0 142.026-12.185 206.832-34.617 7.42 6.729 89.48-33.749 155.029-92.321 8.701 3.619 67.408-62.501 102.767-141.366 24.744-58.664 38.497-123.748 38.497-192.044 0-49.15-7.123-96.636-20.393-141.483 3.652-5.911-19.4-57.577-53.637-99.806-0.096-7.931-36.436-41.847-80.365-62.124-30.99-13.995-65.555-21.811-101.946-21.811-1.053 0-2.104 0.007-3.153 0.020-1.209-0.036-2.821-0.055-4.437-0.055-15.908 0-31.376 1.886-46.191 5.446-0.68-1.435-18.932 4.841-34.759 14.655 0.719-2.518-13.684 8.217-24.038 22.142 5.579-9.749-7.566 8.196-16.093 28.556l-2.761 0.934zM616.265 415.086c-12.471 2.926-26.551 5.486-42.24 8.046-14.387 2.334-30.971 3.668-47.866 3.668-0.902 0-1.803-0.004-2.704-0.011-1.977 0.117-4.451 0.183-6.942 0.183-25.615 0-49.597-6.997-70.137-19.183-16.783-11.256-28.105-30.817-28.105-53.023 0-1.681 0.065-3.347 0.192-4.995-0.025-0.275-0.032-0.856-0.032-1.438 0-11.050 2.377-21.545 6.647-31.001-0.758-1.736 6.765-13.301 16.964-21.748 0.317-1.749 11.987-9.196 25.175-13.116 9.605-2.921 20.036-4.524 30.842-4.524 0.080 0 0.159 0 0.239 0 0.029 0 0.078 0 0.127 0 13.396 0 26.356 1.869 38.633 5.362-14.646-5.829 10.457 1.905 33.013 13.816-6.335-6.981 23.232 11.492 46.040 36.281l0.118 81.684z" />
<glyph unicode="microphone" glyph-name="microphone" horiz-adv-x="717" d="M409.6 144.497v-106.097h102.4c28.277 0 51.2-22.923 51.2-51.2s-22.923-51.2-51.2-51.2h-307.2c-28.277 0-51.2 22.923-51.2 51.2s22.923 51.2 51.2 51.2h102.4v106.097c-174.681 25.921-307.189 174.836-307.2 354.702v81.921c0 28.277 22.923 51.2 51.2 51.2s51.2-22.923 51.2-51.2v-81.92c0-141.385 114.615-256 256-256s256 114.615 256 256v81.92c0 28.277 22.923 51.2 51.2 51.2s51.2-22.923 51.2-51.2v-81.92c-0.010-179.866-132.517-328.781-305.239-354.464zM358.4 304.64c-107.453 0-194.56 87.107-194.56 194.56v266.24c0 107.453 87.107 194.56 194.56 194.56s194.56-87.107 194.56-194.56v-266.24c0-107.453-87.107-194.56-194.56-194.56zM450.56 765.44c0 50.899-41.261 92.16-92.16 92.16s-92.16-41.261-92.16-92.16v-266.24c0-50.899 41.261-92.16 92.16-92.16s92.16 41.261 92.16 92.16v266.24z" />
<glyph unicode="message_bubble" glyph-name="message_bubble" d="M161.431 736c-79.581-6.598-143.212-69.985-150.198-149.627l-0.037-501.43c6.598-79.581 69.985-143.212 149.627-150.198l301.109-0.037v-156.005s-3.009-66.703 64.1-34.554c41.068 45.47 113.681 121.692 186.292 190.558h150.245c79.581 6.598 143.212 69.985 150.198 149.627l0.037 501.43c-6.598 79.581-69.985 143.212-149.627 150.198l-701.75 0.037z" />
<glyph unicode="message" glyph-name="message" d="M286.635 300.935h450.73c13.83 0 25.046-11.21 25.046-25.046v-49.485c0-0.001 0-0.001 0-0.004 0-13.661-11.075-24.734-24.734-24.734-0.104 0-0.211 0.001-0.314 0.004h-450.71c-0.090-0.001-0.193-0.004-0.295-0.004-13.661 0-24.734 11.075-24.734 24.734 0 0.001 0 0.001 0 0.004v49.83c0.199 13.671 11.33 24.69 25.041 24.69 0.001 0 0.004 0 0.006 0zM186.486 500.898h651.048c0.090 0.001 0.193 0.004 0.295 0.004 13.661 0 24.734-11.075 24.734-24.734 0-0.001 0-0.001 0-0.004v-49.685c0-0.001 0-0.001 0-0.004 0-13.661-11.075-24.734-24.734-24.734-0.104 0-0.211 0.001-0.314 0.004h-651.029c-0.090-0.001-0.193-0.004-0.295-0.004-13.661 0-24.734 11.075-24.734 24.734 0 0.001 0 0.001 0 0.004v49.53c0 0.044 0 0.094 0 0.154 0 13.661 11.075 24.734 24.734 24.734 0.104 0 0.211-0.001 0.314-0.004zM161.44 752c-79.579-6.6-143.21-69.984-150.2-149.621l-0.040-501.428c6.6-79.579 69.984-143.21 149.621-150.2l301.109-0.040v-155.95s-3.008-66.761 64.101-34.606c41.066 45.47 113.679 121.65 186.291 190.555h150.244c79.69 6.43 143.39 69.91 150.2 149.63l0.038 501.409c-6.43 79.69-69.91 143.39-149.63 150.2l-701.729 0.038z" />
<glyph unicode="menu" glyph-name="menu" d="M924.444-64h-824.889c-2.756-0.296-5.953-0.465-9.19-0.465-46.424 0-84.731 34.755-90.321 79.665l-0.045 68.711c5.635 45.355 43.942 80.11 90.366 80.11 3.237 0 6.434-0.169 9.583-0.498l824.496 0.033c2.756 0.296 5.953 0.465 9.19 0.465 46.424 0 84.731-34.755 90.321-79.665l0.045-68.711c-5.635-45.355-43.942-80.11-90.366-80.11-3.237 0-6.434 0.169-9.583 0.498zM924.444 334.222h-824.889c-2.756-0.296-5.953-0.465-9.19-0.465-46.424 0-84.731 34.755-90.321 79.665l-0.045 68.711c5.635 45.355 43.942 80.11 90.366 80.11 3.237 0 6.434-0.169 9.583-0.498l824.496 0.033c2.756 0.296 5.953 0.465 9.19 0.465 46.424 0 84.731-34.755 90.321-79.665l0.045-68.711c-5.635-45.355-43.942-80.11-90.366-80.11-3.237 0-6.434 0.169-9.583 0.498zM924.444 732.444h-824.889c-2.756-0.296-5.953-0.465-9.19-0.465-46.424 0-84.731 34.755-90.321 79.665l-0.045 68.711c5.635 45.355 43.942 80.11 90.366 80.11 3.237 0 6.434-0.169 9.583-0.498l824.496 0.033c2.756 0.296 5.953 0.465 9.19 0.465 46.424 0 84.731-34.755 90.321-79.665l0.045-68.711c-5.635-45.355-43.942-80.11-90.366-80.11-3.237 0-6.434 0.169-9.583 0.498z" />
<glyph unicode="medal" glyph-name="medal" d="M569.19 927.829l15.667-26.266c11.887-19.691 33.17-32.654 57.481-32.654 11.991 0 23.246 3.154 32.98 8.678l26.361 14.743c9.4 5.346 20.651 8.497 32.638 8.497 36.63 0 66.389-29.424 66.928-65.926l0.427-30.634c0.521-36.228 29.752-65.459 65.93-65.979l30.633-0.427c36.553-0.54 65.977-30.298 65.977-66.929 0-11.987-3.151-23.238-8.67-32.97l-14.743-26.36c-5.347-9.401-8.499-20.654-8.499-32.642 0-24.311 12.96-45.595 32.349-57.319l26.565-15.835c19.691-11.888 32.654-33.17 32.654-57.481s-12.963-45.593-32.354-57.313l-26.565-15.835c-19.688-11.892-32.648-33.176-32.648-57.487 0-11.989 3.152-23.241 8.672-32.974l14.743-26.377c5.347-9.4 8.499-20.651 8.499-32.638 0-36.628-29.428-66.383-65.93-66.911l-30.633-0.427c-36.23-0.53-65.459-29.765-65.979-65.947l-0.427-30.616c-0.524-36.556-30.281-65.989-66.912-65.989-11.994 0-23.251 3.155-32.986 8.682l-26.361 14.743c-9.399 5.344-20.649 8.495-32.635 8.495-24.316 0-45.604-12.966-57.326-32.361l-15.835-26.548c-11.888-19.691-33.17-32.654-57.481-32.654s-45.593 12.963-57.313 32.354l-15.835 26.548c-11.891 19.695-33.178 32.661-57.494 32.661-11.986 0-23.235-3.15-32.967-8.668l-26.377-14.743c-9.4-5.347-20.651-8.499-32.638-8.499-36.628 0-66.383 29.428-66.911 65.93l-0.427 30.616c-0.53 36.234-29.763 65.467-65.947 65.996l-30.617 0.427c-36.552 0.529-65.98 30.284-65.98 66.912 0 11.987 3.152 23.238 8.672 32.97l14.743 26.378c5.344 9.399 8.495 20.649 8.495 32.635 0 24.316-12.966 45.604-32.361 57.326l-26.548 15.835c-19.691 11.888-32.654 33.17-32.654 57.481s12.963 45.593 32.354 57.313l26.548 15.835c19.695 11.891 32.661 33.178 32.661 57.494 0 11.986-3.15 23.235-8.668 32.967l-14.743 26.36c-5.353 9.404-8.508 20.661-8.508 32.655 0 36.631 29.433 66.388 65.94 66.911l30.616 0.427c36.232 0.521 65.467 29.749 65.996 65.929l0.427 30.634c0.529 36.552 30.284 65.98 66.912 65.98 11.987 0 23.238-3.152 32.97-8.672l26.378-14.743c9.402-5.351 20.657-8.505 32.648-8.505 24.31 0 45.593 12.963 57.313 32.354l15.835 26.565c11.888 19.691 33.17 32.654 57.481 32.654s45.593-12.963 57.313-32.354z" />
<glyph unicode="logo" glyph-name="logo" horiz-adv-x="819" d="M409.6-64c-176.722 34.14-409.6 180.572-409.6 365.711v493.711h109.22v-475.423c0-186.368 300.319-274.289 300.319-274.289s300.339 87.9 300.339 274.289v530.289h-364.052v-365.711c0-36.864 63.713-54.866 63.713-54.866s63.713 17.92 63.713 54.866v219.423h109.22v-228.577c0-79.34-97.178-140.8-172.933-155.423-75.776 14.623-172.913 76.083-172.913 155.423v484.577h582.451v-658.289c0-185.139-232.796-331.571-409.477-365.711z" />
<glyph unicode="loading2" glyph-name="spinner" d="M384 832c0 70.692 57.308 128 128 128s128-57.308 128-128c0-70.692-57.308-128-128-128s-128 57.308-128 128zM655.53 719.53c0 70.692 57.308 128 128 128s128-57.308 128-128c0-70.692-57.308-128-128-128s-128 57.308-128 128zM832 448c0 35.346 28.654 64 64 64s64-28.654 64-64c0-35.346-28.654-64-64-64s-64 28.654-64 64zM719.53 176.47c0 35.346 28.654 64 64 64s64-28.654 64-64c0-35.346-28.654-64-64-64s-64 28.654-64 64zM448.002 64c0 0 0 0 0 0 0 35.346 28.654 64 64 64s64-28.654 64-64c0 0 0 0 0 0 0-35.346-28.654-64-64-64s-64 28.654-64 64zM176.472 176.47c0 0 0 0 0 0 0 35.346 28.654 64 64 64s64-28.654 64-64c0 0 0 0 0 0 0-35.346-28.654-64-64-64s-64 28.654-64 64zM144.472 719.53c0 0 0 0 0 0 0 53.019 42.981 96 96 96s96-42.981 96-96c0 0 0 0 0 0 0-53.019-42.981-96-96-96s-96 42.981-96 96zM56 448c0 39.765 32.235 72 72 72s72-32.235 72-72c0-39.765-32.235-72-72-72s-72 32.235-72 72z" />
<glyph unicode="like" glyph-name="like" horiz-adv-x="1137" d="M1002.834 397.834c14.416 22.532 22.977 50.017 22.977 79.497 0 2.034-0.040 4.058-0.123 6.070 0.141 1.557 0.218 3.713 0.218 5.885 0 50.508-40.944 91.452-91.452 91.452-0.074 0-0.146 0-0.221 0h-182.891l22.862 22.862c60.657 72.475-21.469 192.965-21.469 192.965-42.733 50.756-57.728 58.532-92.847 58.532-3.422 0.274-7.405 0.43-11.432 0.43s-8.011-0.155-11.953-0.461-73.646 8.719-90.928-91.422c-0.083-31.548-46.98-117.59-114.2-182.795l-0.114-45.836c0-22.633 1.463-45.727-45.727-45.727h-205.768c-1.645 0.151-3.56 0.238-5.496 0.238-34.976 0-63.329-28.353-63.329-63.329 0-1.936 0.084-3.851 0.256-5.741l-0.019-319.84c-0.151-1.645-0.238-3.56-0.238-5.496 0-34.976 28.353-63.329 63.329-63.329 1.936 0 3.851 0.084 5.741 0.256l205.524-0.019c28.59 1.71 54.806 19.621 68.363 45.261 11.381-13.484 42.954-45.261 68.815-45.261h342.946c54.023 0 100.16 64.704 100.16 120.488 0.032 9.587-3.252 25.663-9.032 40.493 16.538 13.799 27.874 36.445 28.984 61.743 0.008 0.331 0.008 0.49 0.008 0.65 0 10.166-2.138 19.833-5.987 28.58 16.245 19.506 25.969 45.167 25.969 73.093 0 0.266-0.001 0.531-0.003 0.797 0.242 3.014 0.385 6.573 0.385 10.165 0 10.566-1.207 20.847-3.49 30.72zM385.526 123.474h-182.903v274.358h182.903v-274.358zM911.381 443.562c-22.862-18.976-21.218-48.925-7.2-75.679 1.562-2.902 2.487-6.371 2.491-10.055 0-0.046 0.001-0.102 0.001-0.157 0-6.798-3.048-12.886-7.858-16.967-13.62-11.012-22.236-27.678-22.236-46.362 0-10.697 2.827-20.735 7.769-29.406 1.429-2.614 2.364-6.070 2.364-9.745 0-0.085-0.001-0.175-0.002-0.263 0.001-0.029 0.001-0.082 0.001-0.134 0-6.727-3.043-12.743-7.831-16.743-13.64-10.966-22.269-27.609-22.269-46.267 0-10.648 2.813-20.64 7.732-29.274 0.855-3.571 1.43-8.010 1.43-12.581 0-1.265-0.045-2.516-0.13-3.758-0.307-12.323-10.356-22.371-22.823-22.693l-320.116-0.001c-23.323 3.144-42.168 21.785-45.691 45.431l-0.034 183.2c-0.753 55.327 44.377 42.752 45.727 114.315v68.589c45.44 38.236 96.471 126.34 113.931 225.998 3.802 2.388 7.793 2.25 11.815 2.25s8.013 0.138 11.966 0.417 82.049-77.081 22.329-160.074l-22.862-22.862c0-91.682-0.342-91.452 91.452-91.452h160.041c12.491-0.318 22.539-10.367 22.861-22.834-1.609-6.117-10.783-16.594-22.573-22.755zM339.665 192.063c0-12.627-10.237-22.862-22.862-22.862s-22.862 10.237-22.862 22.862c0 12.627 10.237 22.862 22.862 22.862s22.862-10.237 22.862-22.862z" />
<glyph unicode="lightning" glyph-name="lightning" horiz-adv-x="614" d="M404.992 960l-293.376-71.117-111.616-540.57 293.376 42.65-55.808-454.963 376.832 696.883-363.008-56.883z" />
<glyph unicode="gl" glyph-name="gl" d="M539.039 137.459c0.001 0.161 0.001 0.353 0.001 0.543 0 8.6-1.004 16.967-2.903 24.988-1.704 7.532-3.79 14.616-5.678 21.307 0.903 0.861-3.834 12.077-10.909 21.426l-12.785 18.721c9.667-11.981-1.647 4.765-16.197 18.018-7.457 7.171-13.124 12.288-17.021 15.831s-10.43 8.659-19.679 15.744-15.744 11.414-19.049 14.169-10.233 7.084-20.27 14.169-16.334 11.021-18.774 12.595c-7.732 1.041-16.669 1.636-25.746 1.636-1.756 0-3.507-0.022-5.252-0.067-22.148 0.002-45.099-1.571-67.583-4.615 13.366 3.883-27.954-3.426-66.942-15.938 9.391 6.038-26.789-7.541-58.025-28.036-4.373 0.788-26.776-19.436-41.148-44.808-10.805-19.703-16.957-42.383-16.957-66.5 0-27.724 8.13-53.549 22.134-75.221 0.867-8.077 25.358-34.553 56.030-51.002-8.91 1.624 30.236-17.474 72.788-27.905 25.053-6.060 52.255-9.422 80.229-9.499 0.684-0.005 1.431-0.008 2.179-0.008 23.775 0 46.913 2.728 69.117 7.888-2.76-3.383 31.070 7.336 60.943 24.233 7.406 0.706 29.942 19.686 44.298 44.062 10.958 19.144 17.236 41.397 17.236 65.115 0 1.109-0.014 2.217-0.041 3.32zM465.281 667.621c-0.031 26.069-3.738 54.001-10.665 80.634 7.493-16.768-6.788 34.255-29.489 80.388 1.393 6.538-20.602 38.49-50.153 61.050-20.168 16.006-45.471 25.497-72.991 25.497-0.319 0-0.638-0.001-0.956-0.004-1.517 0.085-3.349 0.133-5.193 0.133-34.082 0-64.307-16.508-83.116-41.965-19.91-27.284-31.736-61.133-31.736-97.745 0-1.436 0.018-2.867 0.054-4.294 0.012-20.35 2.58-41.969 7.419-62.718-4.842 9.981 5.559-28.672 22.279-63.733-13.948 23.749 5.937-19.629 34.144-56.27-3.125-1.24 19.153-25.037 46.691-40.62 17.673-10.414 38.321-16.452 60.372-16.537 2.616-0.241 5.629-0.378 8.674-0.378 31.509 0 59.591 14.675 77.783 37.564 17.034 25.762 27.082 57.122 27.082 90.829 0 2.872-0.073 5.727-0.217 8.562zM384.675 959.663h268.781l-83.007-48.411h-83.047c15.643-4.634 48.304-36.619 67.179-76.414 15.528-31.341 24.403-67.144 24.449-105.015 0.020-1.126 0.033-2.437 0.033-3.751 0-27.798-5.196-54.381-14.669-78.833 3.102-1.055-12.173-31.252-34.060-55.331-13.411-14.42-26.95-27.408-40.489-39.609 25.401 24.316-8.252-3.016-33.93-36.747-9.216-11.981-14.572-26.541-14.639-42.349 0.071-11.454 3.862-22.556 10.275-31.683-8.592 9.367 6.541-12.43 26.126-29.169q16.497-14.338 36.176-29.687c13.106-10.233 26.213-21.648 39.359-33.849-35.701 34.569 4.498 1.148 35.374-39.711-0.194 4.414 16.865-22.070 26.67-51.849 6.822-20.449 10.54-42.469 10.54-65.359 0-0.597-0.003-1.192-0.008-1.788-0.677-69.136-34.013-132.011-85.64-172.724-64.686-51.084-146.799-81.722-236.069-81.722-7.979 0-15.901 0.245-23.758 0.728 0.938-0.053 0.773-0.053 0.609-0.053-25.812 0-51.088 2.291-75.638 6.681 3.077-3.003-37.44 5.937-74.87 20.946 12.063-8.319-29.707 9.463-65.033 35.487-3.489-1.914-29.443 22.785-46.041 53.308-12.059 21.756-18.905 46.685-18.905 73.213 0 0.718 0.005 1.435 0.015 2.151 0.269 27.474 8.692 57.617 23.238 83.903-0.545 8.885 24.657 43.164 57.969 66.737-2.167 3.378 40.209 29.463 87.737 43.561-26.598-5.974 32.061 12.173 93.486 22.044 19.963 3.865 57.199 7.789 95.169 8.759-18.97 20.188-35.201 53.803-38.401 91.14-0.041 0.66-0.041 0.748-0.041 0.835 0 5.055 0.43 10.009 1.254 14.828-0.658-1.66 0.775 5.284 3.186 11.75 1.070 3.083 2.723 7.412 4.77 12.922-3.828-10.171 1.039 0.839 4.111 12.577-12.526-1.163-27.559-2.324-42.86-2.343-1.28-0.026-2.766-0.040-4.255-0.040-59.158 0-112.961 22.925-153.010 60.376-40.179 36.071-65.417 88.346-65.417 146.516 0 1.584 0.019 3.163 0.056 4.738-0.006 0.060-0.006 0.408-0.006 0.756 0 58.972 22.159 112.769 58.605 153.518 21.71 33.19 77.307 71.768 141.984 86.427 36.274 8.092 75.919 12.536 116.602 12.536 0.014 0 0.029 0 0.043 0zM1023.663 802.229v-78.717h-157.434v-157.434h-78.717v157.434h-157.434v78.717h157.434v157.434h78.717v-157.434h157.434z" />
<glyph unicode="forum" glyph-name="forum" d="M960 352h-85.12l-170.88-128v128h-192c-35.346 0-64 28.654-64 64v384c0 35.346 28.654 64 64 64h448c35.346 0 64-28.654 64-64v-384c0-35.346-28.654-64-64-64zM576 288v-64c0-35.346-28.654-64-64-64h-192v-128l-170.88 128h-85.12c-35.346 0-64 28.654-64 64v384c0 35.346 28.654 64 64 64h320v-320c0-35.346 28.654-64 64-64h128z" />
<glyph unicode="folder" glyph-name="folder" horiz-adv-x="1280" d="M10 70c4.373-67.464 58.204-121.421 125.589-125.974l1008.411-0.026c66.939 5.238 120.437 58.564 125.967 125.505l0.033 630.495c-6.516 66.059-59.107 118.945-125.389 125.948l-504.611 0.052v63c-2.049 33.81-29.043 60.864-62.806 62.99l-252.194 0.010c-33.81-2.049-60.864-29.043-62.99-62.806l-0.010-756.194c0-34.797-28.203-63-63-63s-63 28.203-63 63v630c0 34.797-28.203 63-63 63s-63-28.203-63-63v-693z" />
<glyph unicode="flag_full" glyph-name="flag_full" horiz-adv-x="718" d="M701.44-35.123c-28.16-36.864-80.896-39.475-138.752-0.614l-188.928 127.078c-0.512 0-1.536 0.41-2.048 0.614v-0.461c-3.060 1.19-6.603 1.88-10.306 1.88-0.517 0-1.031-0.013-1.542-0.040-0.283 0.019-0.698 0.028-1.116 0.028-3.624 0-7.087-0.686-10.268-1.934l0.191 0.527c-0.23 0.034-1.209-0.217-2.094-0.634l-189.394-127.059c-57.856-38.861-110.592-36.25-138.24 0.614-19.456 25.6-17.408 63.437-17.408 133.786v675.174c-0.001 0.168-0.001 0.367-0.001 0.565 0 102.255 82.647 185.207 184.786 185.7h347.183c102.186-0.494 184.833-83.445 184.833-185.7 0-0.199 0-0.397-0.001-0.596v-675.144c0-70.502 2.048-108.39-16.896-133.786z" />
<glyph unicode="flag_empty" glyph-name="flag_empty" horiz-adv-x="718" d="M697.061-25.051c-27.881-36.49-80.078-39.081-137.352-0.603l-187.021 125.801c-0.508 0-1.523 0.402-2.031 0.603v-0.455c-3.026 1.174-6.535 1.86-10.198 1.86-0.512 0-1.021-0.011-1.528-0.043-0.276 0.016-0.693 0.023-1.102 0.023-3.587 0-7.019-0.683-10.166-1.915l0.19 0.52c-0.232 0.038-1.2-0.211-2.069-0.63l-187.48-125.775c-57.274-38.468-109.481-35.888-136.844 0.603-19.261 25.342-17.23 62.795-17.23 132.434v668.366c-0.001 0.17-0.001 0.367-0.001 0.562 0 101.228 81.811 183.343 182.922 183.825h343.683c101.16-0.493 182.971-82.607 182.971-183.825 0-0.196 0-0.392-0.001-0.588v-668.341c0-69.786 2.031-107.302-16.722-132.434zM612.931 230.138v537.551c0.004 0.368 0.007 0.792 0.007 1.225 0 48.98-39.321 88.78-88.127 89.545l-331.034 0.001c-48.877-0.766-88.197-40.567-88.197-89.546 0-0.434 0.003-0.857 0.008-1.29l-0.001-652.795c-0.002-4.908 0.371-11.028 1.085-17.048-9.526-4.391 1.132 0.438 10.289 7.171l180.216 123.716c11.536 8.27 30.188 15.205 50.359 16.559l0.326 0.68c3.046 0.306 6.082 0.455 9.128 0.603 0.508 0 1.015 0 1.523 0h1.523c0.508 0 0.508 0 1.015 0 3.046 0 6.082-0.306 9.128-0.603v-0.508c16.328-0.3 35.193-6.473 51.089-16.824l180.028-123.626c4.051-2.633 7.097-4.664 10.133-6.283 0.39 1.326 1.226 8.618 1.516 16.049l0.007 115.475z" />
<glyph unicode="fb" glyph-name="fb" horiz-adv-x="512" d="M114.066 394.24v-458.24h215.259v456.046h146.944l35.547 189.806h-180.955v139.703c-0.131 1.23-0.206 2.657-0.206 4.101 0 22.358 17.945 40.524 40.218 40.882h104.555v193.463h-195.365c-67.365 0-166.875-85.943-166.875-177.371v-195.291h-112.823v-192.366z" />
<glyph unicode="eye" glyph-name="eye" horiz-adv-x="1463" d="M731.429-64c-403.749 0-731.429 229.23-731.429 512s327.68 512 731.429 512 731.429-229.23 731.429-512-327.68-512-731.429-512zM731.429 740.571c-161.583 0-292.571-130.989-292.571-292.571s130.989-292.571 292.571-292.571c161.583 0 292.571 130.989 292.571 292.571s-130.989 292.571-292.571 292.571zM731.429 301.714c-80.791 0-146.286 65.494-146.286 146.286s65.494 146.286 146.286 146.286c80.791 0 146.286-65.494 146.286-146.286s-65.494-146.286-146.286-146.286z" />
<glyph unicode="dots" glyph-name="dots" horiz-adv-x="256" d="M128 200c68.473 0 124-55.515 124-124s-55.527-124-124-124c-68.473 0-124 55.515-124 124s55.527 124 124 124zM128 572c68.473 0 124-55.515 124-124s-55.527-124-124-124c-68.473 0-124 55.515-124 124s55.527 124 124 124zM128 944c68.473 0 124-55.515 124-124s-55.527-124-124-124c-68.473 0-124 55.515-124 124s55.527 124 124 124z" />
</font>
</defs>
</svg>
