<svg id="SEO_ICONS" data-name="SEO ICONS" xmlns="http://www.w3.org/2000/svg" viewBox="0 0 57.27 60"><defs><style>.cls-1{fill:#fec319;}.cls-2{fill:#939283;}.cls-3{fill:#fff;}</style></defs><title>adv-5</title><rect class="cls-1" x="8.96" y="14.78" width="6.41" height="6.41"/><rect class="cls-1" x="8.96" y="26.79" width="6.41" height="6.41"/><rect class="cls-1" x="8.96" y="38.81" width="6.41" height="6.41"/><path class="cls-1" d="M25.82,30.94A17.81,17.81,0,0,1,43.64,13.12V0H1.36V60H43.64V48.75A17.81,17.81,0,0,1,25.82,30.94ZM18.33,46.82H8.72V37.21h9.62Zm0-12H8.72V25.19h9.62Zm0-12H8.72V13.18h9.62Z" transform="translate(-1.36)"/><path class="cls-2" d="M43.64,16a15,15,0,1,0,15,15A15,15,0,0,0,43.64,16Z" transform="translate(-1.36)"/><path class="cls-3" d="M51.29,24.08a.48.48,0,0,0-.67,0l-9.3,9.3a.47.47,0,0,1-.67,0l-4-4a.47.47,0,0,0-.67,0l-1.84,1.84a.48.48,0,0,0,0,.67l6.51,6.51a.48.48,0,0,0,.67,0L53.13,26.59a.48.48,0,0,0,0-.67Z" transform="translate(-1.36)"/></svg>