<svg id="SEO_ICONS" data-name="SEO ICONS" xmlns="http://www.w3.org/2000/svg" viewBox="0 0 44.94 60"><defs><style>.cls-1{fill:#ffcb4a;}.cls-2{fill:#ec5e66;}</style></defs><title>adv-4</title><path class="cls-1" d="M29.27,11.92c.4-.87,1.06-.87,1.46,0l2.22,4.8a3.47,3.47,0,0,0,2.47,1.79l5.25.63c1,.11,1.16.74.45,1.39l-3.88,3.59a3.47,3.47,0,0,0-.94,2.9l1,5.19c.19.94-.34,1.33-1.18.86l-4.61-2.59a3.48,3.48,0,0,0-3,0l-4.61,2.59c-.84.47-1.37.08-1.18-.86l1-5.19a3.47,3.47,0,0,0-.94-2.9l-3.88-3.59c-.71-.65-.5-1.28.45-1.39l5.25-.63a3.48,3.48,0,0,0,2.47-1.79Z" transform="translate(-7.53)"/><path class="cls-2" d="M43.37,40.18a22.34,22.34,0,1,0-26.76,0L7.53,51.85l9.3-1.15L18,60l12-15.33h.13L42,60l1.15-9.3,9.3,1.15ZM14,22.34A15.93,15.93,0,1,1,30,38.27,15.94,15.94,0,0,1,14,22.34Z" transform="translate(-7.53)"/></svg>