<svg id="SEO_ICONS" data-name="SEO ICONS" xmlns="http://www.w3.org/2000/svg" viewBox="0 0 60 60"><defs><style>.cls-1{fill:#2da8d3;}.cls-2{fill:#b3c660;}</style></defs><title>adv-3</title><path class="cls-1" d="M58.75,0H1.25A1.25,1.25,0,0,0,0,1.25v57.5A1.25,1.25,0,0,0,1.25,60h57.5A1.25,1.25,0,0,0,60,58.75V1.25A1.25,1.25,0,0,0,58.75,0Zm-16,3.29a3.13,3.13,0,1,1-3.12,3.13A3.12,3.12,0,0,1,42.71,3.29Zm-8.12,0a3.13,3.13,0,1,1-3.12,3.13A3.12,3.12,0,0,1,34.58,3.29ZM53.75,52.5a1.25,1.25,0,0,1-1.25,1.25H7.5A1.25,1.25,0,0,1,6.25,52.5V13.75A1.25,1.25,0,0,1,7.5,12.5h45a1.25,1.25,0,0,1,1.25,1.25Zm-2.92-43A3.13,3.13,0,1,1,54,6.41,3.12,3.12,0,0,1,50.83,9.54Z" transform="translate(0)"/><path class="cls-2" d="M43.22,20.42A15.56,15.56,0,0,1,30,20.28a15.55,15.55,0,0,1-13.22.14c-.26,2.46.69,5,.7,7.73.06,12.19,9,18.53,12.49,18.53s12-5.85,12.49-18.53C42.57,25.37,43.48,22.88,43.22,20.42Zm-15,19.12-6.06-6.06L24.65,31l3.57,3.57,7.14-7.14,2.49,2.49Z" transform="translate(0)"/></svg>