<svg id="SEO_ICONS" data-name="SEO ICONS" xmlns="http://www.w3.org/2000/svg" viewBox="0 0 60 52"><defs><style>.cls-1{fill:#2da8d3;}.cls-2{fill:#ec5e66;}</style></defs><title>adv-6</title><path class="cls-1" d="M58.93,4H45.18v6.48h8.21v39H45.18V56H58.93A1.07,1.07,0,0,0,60,54.92V5.08A1.08,1.08,0,0,0,58.93,4Z" transform="translate(0 -4)"/><path class="cls-1" d="M6.61,49.52v-39h8.21V4H1.06A1.07,1.07,0,0,0,0,5.08V54.92A1.07,1.07,0,0,0,1.06,56H14.82V49.52Z" transform="translate(0 -4)"/><path class="cls-2" d="M9.61,12.67V23.5H50.39V12.67Zm5.21,7.51a2.1,2.1,0,1,1,2.07-2.1A2.08,2.08,0,0,1,14.82,20.18Zm5.33,0a2.1,2.1,0,1,1,2.07-2.1A2.08,2.08,0,0,1,20.15,20.18Zm5.33,0a2.1,2.1,0,1,1,2.07-2.1A2.08,2.08,0,0,1,25.48,20.18Z" transform="translate(0 -4)"/><path class="cls-2" d="M9.61,24.58V35.42H50.39V24.58Zm5.21,7.51A2.1,2.1,0,1,1,16.88,30,2.08,2.08,0,0,1,14.82,32.1Zm5.33,0A2.1,2.1,0,1,1,22.22,30,2.08,2.08,0,0,1,20.15,32.1Zm5.33,0A2.1,2.1,0,1,1,27.55,30,2.08,2.08,0,0,1,25.48,32.1Z" transform="translate(0 -4)"/><path class="cls-2" d="M9.61,36.5V47.33H50.39V36.5ZM14.82,44a2.1,2.1,0,1,1,2.07-2.1A2.08,2.08,0,0,1,14.82,44Zm5.33,0a2.1,2.1,0,1,1,2.07-2.1A2.08,2.08,0,0,1,20.15,44Zm5.33,0a2.1,2.1,0,1,1,2.07-2.1A2.08,2.08,0,0,1,25.48,44Z" transform="translate(0 -4)"/></svg>