<svg xmlns="http://www.w3.org/2000/svg" width="152" height="46" viewBox="0 0 152 46">
  <defs>
    <style>
      .cls-1 {
        fill: #fff;
        fill-rule: evenodd;
      }
    </style>
  </defs>
  <path id="Лого" class="cls-1" d="M170.474,182C162.5,180.467,152,173.889,152,165.571V143.393h4.926V164.75c0,8.373,13.548,12.321,13.548,12.321s13.548-3.948,13.548-12.321V140.929H167.6v16.428c0,1.66,2.874,2.464,2.874,2.464s2.874-.8,2.874-2.464V147.5h4.926v10.268c0,3.565-4.383,6.325-7.8,6.982-3.417-.657-7.8-3.417-7.8-6.982V136h26.274v29.571C188.948,173.889,178.446,180.467,170.474,182Zm46.97-40.711-5.7,8.525-5.7-8.525H204.63V155.1h1.656V144.427l4.948,7.42h1.025l4.948-7.42V155.1h1.656V141.289h-1.419Zm3.318,9.078a5.048,5.048,0,1,0,5.047-4.973A4.84,4.84,0,0,0,220.762,150.367Zm8.517,0a3.47,3.47,0,1,1-3.47-3.474A3.3,3.3,0,0,1,229.279,150.367Zm10.611-7.026v-1.42a4.822,4.822,0,0,1-5.52,0v1.42A5.009,5.009,0,0,0,239.89,143.341ZM234.113,155.1l5.8-6.927V155.1h1.577v-9.472h-1.341l-5.8,6.926v-6.926h-1.577V155.1h1.34Zm28.146-4.736a5.061,5.061,0,0,0-10.054-.731h-2.326v-4H248.3V155.1h1.578V151.1h2.326A5.061,5.061,0,0,0,262.259,150.367Zm-8.516,0a3.47,3.47,0,1,1,3.469,3.472A3.3,3.3,0,0,1,253.743,150.367Zm11.734-3.158v-1.578h-1.419v13.814h1.577v-5.763a4.655,4.655,0,0,0,3.667,1.657,4.979,4.979,0,0,0,0-9.945A4.854,4.854,0,0,0,265.477,147.209Zm6.979,3.158a3.293,3.293,0,0,1-3.332,3.513,3.831,3.831,0,0,1-3.489-2.329v-2.368a3.83,3.83,0,0,1,3.489-2.329A3.292,3.292,0,0,1,272.456,150.367ZM277.2,155.1l5.8-6.927V155.1h1.577v-9.472H283.23l-5.8,6.926v-6.926h-1.577V155.1H277.2Zm9.12-4.7a4.784,4.784,0,0,0,5.067,4.933,6.854,6.854,0,0,0,3.075-.65V153.11a5.727,5.727,0,0,1-2.858.77,3.519,3.519,0,1,1,.039-7.026,4.507,4.507,0,0,1,2.721.849v-1.54a5.341,5.341,0,0,0-2.918-.769A4.86,4.86,0,0,0,286.318,150.406Zm14.211,4.7v-8.012H304v-1.46h-8.536v1.46h3.489V155.1h1.577Zm-96.9,12.941a5.048,5.048,0,1,0,5.047-4.974A4.841,4.841,0,0,0,203.624,168.044Zm8.517,0a3.47,3.47,0,1,1-3.47-3.474A3.3,3.3,0,0,1,212.141,168.044Zm5,4.736v-4.006h5.481v4.006H224.2v-9.473h-1.577v4.006h-5.481v-4.006h-1.577v9.473h1.577Zm12.823-8.012h3.844v8.012h1.578v-9.473h-6.959c-0.178,5.092-.73,8.289-2.406,8.289a1.87,1.87,0,0,1-.631-0.119v1.244a3.169,3.169,0,0,0,1.144.216C228.982,172.937,229.653,169.622,229.968,164.768Zm15.613,6.038V167.1c0-2.644-1.6-4.026-4.121-4.026a11.193,11.193,0,0,0-3.607.632v1.539a8.682,8.682,0,0,1,3.45-.71c1.734,0,2.7.947,2.7,2.368v0.335a12.9,12.9,0,0,0-2.622-.3c-2.03,0-4.278.75-4.278,3.2,0,1.994,1.656,2.882,3.332,2.882a5.552,5.552,0,0,0,3.687-1.264,1.675,1.675,0,0,0,1.735,1.145,3.481,3.481,0,0,0,1.182-.217V171.4a2.374,2.374,0,0,1-.729.139A0.638,0.638,0,0,1,245.581,170.806Zm-6.861-.75c0-1.381,1.5-1.8,2.878-1.8a13.183,13.183,0,0,1,2.4.276v1.737a4.458,4.458,0,0,1-3.233,1.38C239.725,171.654,238.72,171.161,238.72,170.056Zm16.73-9.038V159.6a4.817,4.817,0,0,1-5.52,0v1.421A5.009,5.009,0,0,0,255.45,161.018Zm-5.776,11.762,5.8-6.927v6.927h1.577v-9.473h-1.34l-5.8,6.927v-6.927h-1.578v9.473h1.341Zm10.962,0v-4.006h5.48v4.006h1.577v-9.473h-1.577v4.006h-5.48v-4.006h-1.578v9.473h1.578Z" transform="translate(-152 -136)"/>
</svg>
